<svg id="Capa_1" data-name="Capa 1" xmlns="http://www.w3.org/2000/svg" xmlns:xlink="http://www.w3.org/1999/xlink" viewBox="0 0 301 226"><defs><style>.cls-1,.cls-7{fill:none;}.cls-2{clip-path:url(#clip-path);}.cls-3{fill:#070308;}.cls-4{fill:#5e3721;}.cls-5{fill:#48539a;}.cls-6{fill:#34385b;}.cls-7{stroke:#fff;stroke-miterlimit:10;}</style><clipPath id="clip-path" transform="translate(0 1)"><rect class="cls-1" x="55" y="-23" width="190.91" height="270"/></clipPath></defs><title>sombrilla</title><g class="cls-2"><g class="cls-2"><path class="cls-3" d="M66.58,56.52a1.91,1.91,0,0,1-1.74-3.4l4.26-2.18a1.91,1.91,0,1,1,1.74,3.4Z" transform="translate(0 1)"/><path class="cls-3" d="M228.91,183.93a1.92,1.92,0,0,1-3.52-1.51l1.9-4.4a1.91,1.91,0,1,1,3.51,1.52Z" transform="translate(0 1)"/><path class="cls-3" d="M174.82,163.46a1.92,1.92,0,1,1-3.21-2.09l2.6-4a1.91,1.91,0,0,1,3.21,2.08Z" transform="translate(0 1)"/><path class="cls-3" d="M102,103.66A1.92,1.92,0,0,1,99.24,101l3.34-3.42a1.92,1.92,0,0,1,2.74,2.68Z" transform="translate(0 1)"/><path class="cls-4" d="M207,40.28Q191.81,59.5,176.59,78.7L119.34,151l-33,41.65c-2.83,3.58-7.41,5-11.59,2.81-5.5-2.83-7.44-9.33-3.6-14.53,2.57-3.48-3.25-6.82-5.79-3.39-7,9.44-.94,22.31,9.81,25.2,6.2,1.67,12.5-1.06,16.36-5.93l12.4-15.65q26.53-33.49,53.08-67l48.23-60.87L211.77,45a3.43,3.43,0,0,0,0-4.74c-1.18-1.17-3.61-1.43-4.74,0" transform="translate(0 1)"/><path class="cls-3" d="M100,175.06c-4.62,6.1-9.19,12.38-14.36,18A9.15,9.15,0,0,1,73,194c-4.27-3.33-4.84-8.66-1.67-12.95,1.17-1.58.27-4-1.28-4.91a3.66,3.66,0,0,0-4.91,1.28c-4.49,6.08-3.76,14,.78,19.73a16.58,16.58,0,0,0,18.17,5.27C90.37,200.2,94.25,194,98.17,189q4-5.13,8-10.35c1.19-1.56.25-4-1.28-4.91-1.84-1.08-3.74-.27-4.91,1.29" transform="translate(0 1)"/><path class="cls-5" d="M230,181.93s32.53-84.67-27.75-130.11-112.89-9.09-135.38,0c0,0,30.62,19.61,35.4,48.79,0,0,54.54,14.83,72.72,59.32,0,0,40.18,3.35,55,22" transform="translate(0 1)"/><path class="cls-6" d="M203.69,52.91c-.47-.37-.95-.73-1.43-1.09s-1.24-.93-1.86-1.38a133.34,133.34,0,0,0-93.74,42.69c-1.64,1.79-3.26,3.64-4.73,5.58.13.63.25,1.26.35,1.9,0,0,.52.14,1.46.43,4-5.49,9.89-11.23,15.3-15.94A130.76,130.76,0,0,1,165.78,59a129.32,129.32,0,0,1,35-5.69,204.28,204.28,0,0,1-3.29,31,275.28,275.28,0,0,1-23.27,73.87l.75,1.76s.54,0,1.51.15a279.88,279.88,0,0,0,23.68-74.4c1.85-10.75,3.39-21.82,3.5-32.77" transform="translate(0 1)"/></g></g><rect class="cls-7" x="0.5" y="0.5" width="300" height="225"/></svg>