<svg id="Capa_1" data-name="Capa 1" xmlns="http://www.w3.org/2000/svg" xmlns:xlink="http://www.w3.org/1999/xlink" viewBox="0 0 257.24 162.39"><defs><style>.cls-1{fill:none;}.cls-2{clip-path:url(#clip-path);}.cls-3{fill:#960611;}.cls-4{fill:#afaeae;}</style><clipPath id="clip-path" transform="translate(-24.66 -35.84)"><rect class="cls-1" x="-11" width="321.43" height="225"/></clipPath></defs><title>serrucho</title><g class="cls-2"><g class="cls-2"><path class="cls-3" d="M107.08,60.36c-.38-.32-3.88-3.08-10.81-1.72l-.19,0A16.06,16.06,0,0,1,82.41,48.8s-7.71-12.51-20.25-11a3.65,3.65,0,0,0-.81,1.11c-.17.4-.7,1.64,2.23,3.12.09,0,3.76,1.55,5,4.48.94,2.28.16,4.75-2.35,7.19l-.17.13c-.11.07-11.51,6.87-18.55,17.12-.34.53-8.7,13.59-20.08,12.5a3.91,3.91,0,0,0-.76,1.09h0c-.18.42-.71,1.71,2,3.11L50,98.92a16.48,16.48,0,0,0,13.81.8l13.37-4.18,11,3.74-.07.16.91.47a7.43,7.43,0,0,0,1.84.67,7.91,7.91,0,0,0,1.28.19,7.61,7.61,0,0,0,7.21-4.15l12.72-24.93a7.82,7.82,0,0,0-1.59-9.19,7.62,7.62,0,0,0-1.75-1.26ZM87.64,85.76A2.46,2.46,0,0,1,88.91,89a2.39,2.39,0,0,1-3.17,1.25A2.46,2.46,0,0,1,84.47,87a2.39,2.39,0,0,1,3.17-1.25m5.15-11.93a12.4,12.4,0,0,1-5.57,5.74l-.25.1c-.09,0-8.18,1.87-18.49,12.47-2.35,2.66-8.12,6.73-13,2.93a7.13,7.13,0,0,1-1.37-8.2A15.42,15.42,0,0,1,58,81.8c.86-1,11.91-14,27.61-17.3.24,0,5.08-.8,7.47,3.17l.07.15a8.48,8.48,0,0,1-.31,6M98,67.07a2.46,2.46,0,0,1-1.27-3.21,2.39,2.39,0,0,1,3.16-1.25,2.46,2.46,0,0,1,1.28,3.2A2.41,2.41,0,0,1,98,67.07" transform="translate(-24.66 -35.84)"/><path d="M98.41,64.59a.62.62,0,0,0,.32.81.6.6,0,0,0,.79-.32.61.61,0,0,0-.32-.8.61.61,0,0,0-.79.31" transform="translate(-24.66 -35.84)"/><path d="M86.46,88.54a.6.6,0,0,0,.79-.31.62.62,0,0,0-.32-.8.59.59,0,0,0-.79.31.61.61,0,0,0,.32.8" transform="translate(-24.66 -35.84)"/><path class="cls-4" d="M113.31,63.23c.13.22.26.45.38.68a6.57,6.57,0,0,1,.26.61,7.31,7.31,0,0,1,.29.78q.09.28.15.57c.07.29.15.58.19.87s0,.36,0,.53c0,.32.06.63.06.94s0,.34,0,.51c0,.32,0,.64-.08,1s-.09.37-.13.56-.12.59-.22.89a9.79,9.79,0,0,1-.57,1.4L100.94,97.47a8.1,8.1,0,0,1-.82,1.32c-.1.14-.22.26-.33.39a9.67,9.67,0,0,1-.67.75c-.14.15-.31.26-.46.4s-.45.39-.7.56-.36.22-.54.33-.49.3-.74.42-.4.17-.61.26-.51.2-.78.29-.43.1-.65.15-.54.12-.82.16-.44,0-.67.06a7.85,7.85,0,0,1-.84,0l-.69,0c-.16,0-.32,0-.48,0l-4.57,8.86h0l1.35,3.39,3.35-1.34.69.3.21.38,1.21,3,3.34-1.34.7.28.21.4,1.21,3,3.36-1.33.68.3.22.38,1.21,3,3.36-1.34.68.32.21.38,1.21,3,3.35-1.34.68.3.23.39,1.21,3,3.33-1.34,2.55,1.12-1.4.54.89,2.23,3.89-1.55,1.57,3.93L130,130l1.57,3.94,3.9-1.56,1.57,3.94,3.89-1.56,1.57,3.94,3.9-1.56,1.57,3.94,3.89-1.56,1.57,3.94,3.89-1.55,1.57,3.93,3.89-1.56,1.57,3.94,3.9-1.55,1.57,3.93,3.89-1.55,1.57,3.93,3.9-1.55,1.57,3.93,3.89-1.55,1.57,3.93,3.89-1.55,1.57,3.93,3.9-1.55,1.57,3.93L201,161l1.57,3.94,3.89-1.56,1.58,3.93,3.89-1.55,1.57,3.94,3.89-1.56,1.58,3.94,3.89-1.56,1.57,3.94,3.89-1.56,1.57,3.94,3.89-1.55,1.58,3.93,3.89-1.56,1.57,3.94,3.89-1.55,1.57,3.93,3.9-1.55,1.57,3.93,3.89-1.55,1.57,3.93,3.9-1.55,1.56,3.93,3.9-1.55,1.57,3.93,3.89-1.55,1.58,3.94,2.48-1,3.76-15.44-167.51-118-.15.3c.1.11.18.24.27.35s.31.38.45.58.27.41.4.62" transform="translate(-24.66 -35.84)"/><path d="M113.69,63.91a6.57,6.57,0,0,1,.26.61,6.57,6.57,0,0,0-.26-.61" transform="translate(-24.66 -35.84)"/><path d="M114.39,65.87q-.06-.28-.15-.57.09.28.15.57" transform="translate(-24.66 -35.84)"/><path d="M113.66,72.53a9.79,9.79,0,0,0,.57-1.4,9.79,9.79,0,0,1-.57,1.4" transform="translate(-24.66 -35.84)"/><path d="M114.45,70.24c0-.19.1-.37.13-.56,0,.19-.09.37-.13.56" transform="translate(-24.66 -35.84)"/><path d="M100.12,98.79a8.1,8.1,0,0,0,.82-1.32,8.1,8.1,0,0,1-.82,1.32" transform="translate(-24.66 -35.84)"/><path d="M98,100.89c.25-.17.47-.37.7-.56-.23.19-.45.39-.7.56" transform="translate(-24.66 -35.84)"/><path d="M114.63,67.27c0-.17,0-.35,0-.53,0,.18,0,.36,0,.53" transform="translate(-24.66 -35.84)"/><path d="M114.66,68.72c0-.17,0-.34,0-.51,0,.17,0,.34,0,.51" transform="translate(-24.66 -35.84)"/><path d="M99.12,99.93a9.67,9.67,0,0,0,.67-.75,9.67,9.67,0,0,1-.67.75" transform="translate(-24.66 -35.84)"/><path d="M113.31,63.23c-.13-.21-.26-.42-.4-.62.14.2.27.41.4.62" transform="translate(-24.66 -35.84)"/><path d="M92.12,100.77a7.61,7.61,0,0,0,7.21-4.15,7.61,7.61,0,0,1-7.21,4.15" transform="translate(-24.66 -35.84)"/><path d="M93.82,102.5c.28,0,.55-.1.82-.16-.27.06-.54.12-.82.16" transform="translate(-24.66 -35.84)"/><path d="M271,194.3l1.58,3.93,5.57-2.23-.31-.76,4-16.58-170.22-120-.89,1.73a10.77,10.77,0,0,1,.91.76,8.71,8.71,0,0,1,.76.85c-.09-.11-.17-.24-.27-.35l.15-.3L279.85,179.43l-3.76,15.44-2.48,1L272,191.93l-3.89,1.55-1.58-3.93-3.89,1.55-1.56-3.93-3.9,1.55-1.57-3.93-3.89,1.55-1.57-3.93-3.9,1.55L244.71,180l-3.89,1.55-1.57-3.94-3.89,1.56-1.58-3.93-3.89,1.55-1.57-3.94-3.89,1.56-1.57-3.94L219,172.06l-1.58-3.94-3.89,1.56-1.57-3.94L208,167.29l-1.58-3.93-3.89,1.56L201,161l-3.89,1.55-1.57-3.93-3.9,1.55-1.57-3.93-3.89,1.55-1.57-3.93-3.89,1.55-1.57-3.93-3.9,1.55-1.57-3.93-3.89,1.55-1.57-3.93-3.9,1.55-1.57-3.94-3.89,1.56-1.57-3.93-3.89,1.55-1.57-3.94-3.89,1.56-1.57-3.94-3.9,1.56-1.57-3.94L137,136.35l-1.57-3.94-3.9,1.56L130,130l-3.89,1.55-1.57-3.93-3.89,1.55-.89-2.23,1.4-.54-2.55-1.12-3.33,1.34-1.21-3-.23-.39-.68-.3-3.35,1.34-1.21-3-.21-.38-.68-.32-3.36,1.34-1.21-3-.22-.38-.68-.3-3.36,1.33-1.21-3-.21-.4-.7-.28-3.34,1.34-1.21-3L92,113.7l-.69-.3-3.35,1.34-1.35-3.39h0l4.57-8.86c.16,0,.32,0,.48,0a9.87,9.87,0,0,1-1.18-.17,10.16,10.16,0,0,1-1.11-.33l-5.26,10.2,1.11.49,1.74,4.39,3.9-1.56,1.58,3.94,3.88-1.55,1.57,3.93,3.9-1.56,1.57,3.94,3.89-1.55,1.57,3.93,3.9-1.55,1.57,3.93,3.75-1.5,1.61,4.06,3.9-1.55,1.57,3.93L129,132.4l1.58,3.93,3.89-1.55,1.57,3.94,3.89-1.56,1.57,3.93,3.89-1.55,1.58,3.94,3.89-1.56,1.57,3.94,3.89-1.56,1.57,3.93,3.89-1.55,1.58,3.94,3.89-1.56,1.57,3.94,3.89-1.56,1.57,3.94,3.9-1.56,1.57,3.94,3.89-1.56,1.57,3.94,3.89-1.56,1.57,3.94,3.9-1.56,1.57,3.94,3.89-1.55,1.57,3.93,3.9-1.55,1.57,3.93,3.89-1.55L212.5,172l3.89-1.55,1.58,3.93,3.89-1.55,1.57,3.94,3.89-1.56,1.57,3.94,3.89-1.56,1.57,3.94,3.9-1.56,1.57,3.93,3.89-1.54,1.57,3.93,3.9-1.55,1.57,3.93,3.89-1.56,1.57,3.94,3.89-1.55,1.58,3.93,3.89-1.55,1.57,3.93Z" transform="translate(-24.66 -35.84)"/><path d="M92.31,102.58a7.85,7.85,0,0,0,.84,0,7.85,7.85,0,0,1-.84,0" transform="translate(-24.66 -35.84)"/><path d="M96.07,101.9c-.26.1-.51.2-.78.29.27-.09.52-.19.78-.29" transform="translate(-24.66 -35.84)"/><path d="M96.68,101.64c.25-.12.49-.27.74-.42-.25.15-.49.3-.74.42" transform="translate(-24.66 -35.84)"/><path d="M97.42,101.22c.18-.11.37-.21.54-.33-.17.12-.36.22-.54.33" transform="translate(-24.66 -35.84)"/><path d="M91.62,102.53l.69,0-.69,0" transform="translate(-24.66 -35.84)"/><path d="M94.64,102.34c.22,0,.44-.09.65-.15-.21.06-.43.1-.65.15" transform="translate(-24.66 -35.84)"/><path d="M99.79,99.18c.11-.13.23-.25.33-.39-.1.14-.22.26-.33.39" transform="translate(-24.66 -35.84)"/><path d="M93.15,102.56c.23,0,.45,0,.67-.06-.22,0-.44,0-.67.06" transform="translate(-24.66 -35.84)"/><path d="M98.66,100.33c.15-.14.32-.25.46-.4-.14.15-.31.26-.46.4" transform="translate(-24.66 -35.84)"/><path d="M112.46,62c.16.19.31.38.45.58-.14-.2-.29-.39-.45-.58" transform="translate(-24.66 -35.84)"/><path d="M96.68,101.64c-.2.1-.4.17-.61.26.21-.09.41-.16.61-.26" transform="translate(-24.66 -35.84)"/><path d="M93,67.67c-2.39-4-7.23-3.21-7.47-3.17C69.86,67.77,58.81,80.76,58,81.8a15.42,15.42,0,0,0-3.8,5.07,7.13,7.13,0,0,0,1.37,8.2c4.84,3.8,10.61-.27,13-2.93C78.79,81.54,86.88,79.69,87,79.67l.25-.1a12.4,12.4,0,0,0,5.57-5.74,8.48,8.48,0,0,0,.31-6ZM91.12,73.1a10.54,10.54,0,0,1-4.69,4.82c-1.2.29-9.16,2.56-19.27,13-.24.27-5.83,6.45-10.48,2.79a5.35,5.35,0,0,1-.87-6.08,13.82,13.82,0,0,1,3.41-4.5l.09-.08c.11-.14,11.23-13.52,26.59-16.73,0,0,3.76-.59,5.54,2.24a6.72,6.72,0,0,1-.32,4.57" transform="translate(-24.66 -35.84)"/><path d="M90.83,100.58a8.2,8.2,0,0,0,1.29.19,7.91,7.91,0,0,1-1.28-.19A7.43,7.43,0,0,1,89,99.91l-.91-.47.07-.16-11-3.74L63.79,99.72A16.5,16.5,0,0,1,50,98.92L28.68,87.65c-2.75-1.4-2.22-2.69-2-3.11h0a3.91,3.91,0,0,1,.76-1.09c11.38,1.09,19.74-12,20.08-12.5,7-10.25,18.44-17,18.55-17.12l.17-.13c2.51-2.44,3.29-4.91,2.35-7.19-1.21-2.93-4.88-4.45-5-4.48-2.93-1.48-2.4-2.72-2.23-3.12a3.65,3.65,0,0,1,.81-1.11c12.54-1.5,20.23,11,20.25,11a16.06,16.06,0,0,0,13.67,9.86l.19,0c6.93-1.36,10.43,1.4,10.81,1.72l1.63.88a7.62,7.62,0,0,1,1.75,1.26L110,62l.83-1.6a9.79,9.79,0,0,0-1.25-.8l-1.38-.72c-.91-.74-4.87-3.46-12.14-2.07A14.51,14.51,0,0,1,84,48c-.08-.14-8.48-13.81-22.36-11.94l-.23,0-.19.14a5.35,5.35,0,0,0-1.54,2c-.51,1.2-.8,3.52,3.16,5.51.86.35,3.27,1.66,4,3.51.64,1.56,0,3.26-1.87,5.11-1.2.73-12,7.4-19,17.62-.08.13-8.3,13-18.78,11.67l-.38,0-.29.23a5.75,5.75,0,0,0-1.54,2h0c-.52,1.23-.84,3.57,2.88,5.47l21.23,11.24a18,18,0,0,0,15.31.93l12.74-4,9.28,3.15,1.75.91a9.26,9.26,0,0,0,1.16.51l.83-1.61Z" transform="translate(-24.66 -35.84)"/><path d="M114.23,71.13c.1-.3.15-.6.22-.89-.07.29-.12.59-.22.89" transform="translate(-24.66 -35.84)"/><path d="M114,64.52a7.31,7.31,0,0,1,.29.78,7.31,7.31,0,0,0-.29-.78" transform="translate(-24.66 -35.84)"/><path d="M113.69,63.91c-.12-.23-.25-.46-.38-.68.13.22.26.45.38.68" transform="translate(-24.66 -35.84)"/><path d="M114.69,68.21c0-.31,0-.62-.06-.94,0,.32.06.63.06.94" transform="translate(-24.66 -35.84)"/><path d="M114.58,69.68c0-.32.06-.64.08-1,0,.32,0,.64-.08,1" transform="translate(-24.66 -35.84)"/><path d="M114.58,66.74c0-.29-.12-.58-.19-.87.07.29.15.58.19.87" transform="translate(-24.66 -35.84)"/><path d="M91.62,102.53l.69,0a7.85,7.85,0,0,0,.84,0c.23,0,.45,0,.67-.06s.55-.1.82-.16.44-.09.65-.15.52-.19.78-.29.41-.16.61-.26.49-.27.74-.42.37-.21.54-.33.47-.37.7-.56.32-.25.46-.4a9.67,9.67,0,0,0,.67-.75c.11-.13.23-.25.33-.39a8.1,8.1,0,0,0,.82-1.32l12.72-24.94a9.79,9.79,0,0,0,.57-1.4c.1-.3.15-.6.22-.89s.1-.37.13-.56.06-.64.08-1c0-.17,0-.34,0-.51s0-.62-.06-.94c0-.17,0-.35,0-.53s-.12-.58-.19-.87-.09-.38-.15-.57a7.31,7.31,0,0,0-.29-.78,6.57,6.57,0,0,0-.26-.61c-.12-.23-.25-.46-.38-.68s-.26-.42-.4-.62-.29-.39-.45-.58a8.71,8.71,0,0,0-.76-.85,10.77,10.77,0,0,0-.91-.76L110,62l.5.48a7.8,7.8,0,0,1,1.59,9.19L99.33,96.62a7.61,7.61,0,0,1-7.21,4.15,8.2,8.2,0,0,1-1.29-.19l-.67-.16L89.33,102a10.16,10.16,0,0,0,1.11.33,9.87,9.87,0,0,0,1.18.17" transform="translate(-24.66 -35.84)"/><path d="M99.91,62.61a2.39,2.39,0,0,0-3.16,1.25A2.46,2.46,0,0,0,98,67.07a2.41,2.41,0,0,0,3.17-1.26,2.46,2.46,0,0,0-1.28-3.2m-.39,2.47a.6.6,0,0,1-.79.32.62.62,0,0,1-.32-.81.61.61,0,0,1,.79-.31.61.61,0,0,1,.32.8" transform="translate(-24.66 -35.84)"/><path d="M85.75,90.21A2.39,2.39,0,0,0,88.91,89a2.46,2.46,0,0,0-1.27-3.2A2.39,2.39,0,0,0,84.47,87a2.45,2.45,0,0,0,1.28,3.2m1.18-2.78a.62.62,0,0,1,.32.8.6.6,0,0,1-.79.31.61.61,0,0,1-.32-.8.59.59,0,0,1,.79-.31" transform="translate(-24.66 -35.84)"/></g></g></svg>