<svg xmlns="http://www.w3.org/2000/svg" xmlns:xlink="http://www.w3.org/1999/xlink" viewBox="0 0 600 350"><defs><style>.cls-1{isolation:isolate;}.cls-2{fill:url(#Degradado_sin_nombre_21);}.cls-14,.cls-16,.cls-3{fill:#42e8e0;}.cls-4{fill:url(#Áåçûìÿííûé_ãðàäèåíò_41);}.cls-10,.cls-5{fill:#24126a;}.cls-6{fill:#fff;}.cls-7{fill:#453c9e;opacity:0.51;}.cls-12,.cls-13,.cls-15,.cls-16,.cls-8{opacity:0.5;}.cls-12,.cls-13,.cls-15,.cls-8,.cls-9{mix-blend-mode:lighten;}.cls-8{fill:url(#Áåçûìÿííûé_ãðàäèåíò_45);}.cls-9{opacity:0.8;fill:url(#Áåçûìÿííûé_ãðàäèåíò_56);}.cls-10,.cls-11,.cls-14{opacity:0.4;}.cls-12{fill:url(#Áåçûìÿííûé_ãðàäèåíò_56-2);}.cls-13{fill:url(#Áåçûìÿííûé_ãðàäèåíò_56-3);}.cls-15{fill:url(#Áåçûìÿííûé_ãðàäèåíò_45-2);}</style><radialGradient id="Degradado_sin_nombre_21" cx="300" cy="175" r="245.59" gradientUnits="userSpaceOnUse"><stop offset="0" stop-color="#2b237c"/><stop offset="0.31" stop-color="#251c72"/><stop offset="1" stop-color="#0f054c"/></radialGradient><linearGradient id="Áåçûìÿííûé_ãðàäèåíò_41" x1="262.29" y1="212.76" x2="552.57" y2="212.76" gradientUnits="userSpaceOnUse"><stop offset="0" stop-color="#bcbeff"/><stop offset="0.15" stop-color="#a3a7f5"/><stop offset="0.39" stop-color="#8289e8"/><stop offset="0.61" stop-color="#6a73df"/><stop offset="0.82" stop-color="#5c66d9"/><stop offset="1" stop-color="#5761d7"/></linearGradient><radialGradient id="Áåçûìÿííûé_ãðàäèåíò_45" cx="364.89" cy="216.81" r="227.21" gradientUnits="userSpaceOnUse"><stop offset="0" stop-color="#42e8e0"/><stop offset="0.11" stop-color="#37b6bf"/><stop offset="0.22" stop-color="#2c87a1"/><stop offset="0.34" stop-color="#235f87"/><stop offset="0.46" stop-color="#1c3f72"/><stop offset="0.58" stop-color="#162561"/><stop offset="0.71" stop-color="#121355"/><stop offset="0.85" stop-color="#10084e"/><stop offset="1" stop-color="#0f054c"/></radialGradient><linearGradient id="Áåçûìÿííûé_ãðàäèåíò_56" x1="447.86" y1="253.83" x2="366.83" y2="146.3" xlink:href="#Áåçûìÿííûé_ãðàäèåíò_45"/><linearGradient id="Áåçûìÿííûé_ãðàäèåíò_56-2" x1="408.68" y1="88.87" x2="314.41" y2="250.96" gradientTransform="matrix(-1, -0.01, -0.01, 1, 730.35, 9.62)" xlink:href="#Áåçûìÿííûé_ãðàäèåíò_45"/><linearGradient id="Áåçûìÿííûé_ãðàäèåíò_56-3" x1="389.88" y1="115.81" x2="322.39" y2="214.96" gradientTransform="matrix(-1, -0.01, -0.01, 1, 730.35, 9.62)" xlink:href="#Áåçûìÿííûé_ãðàäèåíò_45"/><radialGradient id="Áåçûìÿííûé_ãðàäèåíò_45-2" cx="-1012.81" cy="-181.19" r="146.62" gradientTransform="matrix(0.87, 0.5, -0.87, 0.5, 1165.45, 828.59)" xlink:href="#Áåçûìÿííûé_ãðàäèåíò_45"/></defs><title>back</title><g class="cls-1"><g id="Ñëîé_1" data-name="Ñëîé 1"><rect class="cls-2" width="600" height="350"/><path class="cls-3" d="M364.05,311a14.42,14.42,0,0,1-7-1.61L265,256.28c-1.85-1.07-2.86-2.55-2.86-4.18,0-1.95,1.46-3.92,4-5.39L441.68,145.34c4.77-2.76,12-3.05,16.17-.66l92.06,53.15c1.85,1.07,2.86,2.55,2.86,4.18,0,2-1.46,3.91-4,5.38L373.18,308.77A18.84,18.84,0,0,1,364.05,311Zm-6.84-2c4,2.33,11.11,2,15.77-.66L548.56,207.05c2.43-1.4,3.82-3.24,3.82-5,0-1.48-1-2.84-2.67-3.84L457.65,145c-4-2.33-11.11-2-15.77.66L266.29,247.05c-2.42,1.4-3.81,3.24-3.81,5,0,1.48.95,2.84,2.67,3.83Z" transform="translate(0 -0.15)"/><path class="cls-4" d="M552.57,177.46l-13.22,2.27-81.6-47.11c-4.1-2.36-11.25-2.07-16,.66L285.66,223.41l-23.37,4v8.29h0c0,1.52.88,3,2.75,4l92.06,53.15c4.1,2.36,11.25,2.07,16-.66L548.66,190.88c2.55-1.47,3.86-3.35,3.9-5.13h0Z" transform="translate(0 -0.15)"/><path class="cls-5" d="M357.11,284.57l-92.06-53.16c-4.09-2.36-3.58-6.49,1.15-9.22L441.78,120.82c4.72-2.73,11.87-3,16-.66l92.06,53.15c4.09,2.36,3.58,6.49-1.15,9.22L373.08,283.9C368.36,286.63,361.21,286.93,357.11,284.57Z" transform="translate(0 -0.15)"/><path class="cls-6" d="M548.66,182.53,373.08,283.9c-4.72,2.73-11.87,3-16,.67l-92.06-53.16a5,5,0,0,1-2.72-3.49c-.25,1.7.63,3.36,2.72,4.57l92.06,53.15c4.1,2.36,11.25,2.07,16-.66L548.66,183.61c2.84-1.64,4.14-3.77,3.87-5.73C552.28,179.52,551,181.19,548.66,182.53Z" transform="translate(0 -0.15)"/><path class="cls-7" d="M357.29,282.51l-88.78-51.28c-4-2.28-3.46-6.28,1.11-8.92L442,122.85c4.57-2.65,11.49-2.93,15.45-.64l88.78,51.27c4,2.28,3.47,6.28-1.11,8.92L372.75,281.87C368.17,284.51,361.25,284.79,357.29,282.51Z" transform="translate(0 -0.15)"/><path class="cls-8" d="M357.29,280.22l-88.78-51.28c-4-2.28-3.46-6.28,1.11-8.92L442,120.56c4.57-2.64,11.49-2.93,15.45-.64l88.78,51.27c4,2.29,3.47,6.28-1.11,8.92L372.75,279.58C368.17,282.22,361.25,282.5,357.29,280.22Z" transform="translate(0 -0.15)"/><path class="cls-9" d="M364,282a13.93,13.93,0,0,1-6.85-1.58l-88.78-51.27a4.88,4.88,0,0,1-2.82-4.12c0-1.92,1.43-3.86,3.93-5.3L441.8,120.31c4.65-2.68,11.71-3,15.74-.64l88.78,51.27a4.88,4.88,0,0,1,2.82,4.12c0,1.93-1.43,3.86-3.92,5.3L372.89,279.82A18.24,18.24,0,0,1,364,282ZM357.44,280c3.87,2.24,10.68,1.95,15.16-.64l172.33-99.47c2.31-1.33,3.64-3.08,3.64-4.8a4.35,4.35,0,0,0-2.53-3.62l-88.78-51.28c-3.88-2.23-10.68-2-15.17.64L269.76,220.27c-2.31,1.34-3.64,3.09-3.64,4.8a4.36,4.36,0,0,0,2.53,3.63Z" transform="translate(0 -0.15)"/><path class="cls-10" d="M527.22,179.7a5.44,5.44,0,0,1-4.91,0c-1.35-.78-1.35-2,0-2.83a5.38,5.38,0,0,1,4.91,0C528.58,177.65,528.58,178.92,527.22,179.7Z" transform="translate(0 -0.15)"/><path class="cls-10" d="M508.49,166.05l9.6,5.55c1.18.67,1,1.86-.32,2.64h0a5.09,5.09,0,0,1-4.58.19l-9.61-5.55c-1.17-.67-1-1.86.33-2.64h0A5.09,5.09,0,0,1,508.49,166.05Z" transform="translate(0 -0.15)"/><path class="cls-3" d="M527.22,176.26a5.44,5.44,0,0,1-4.91,0c-1.35-.79-1.35-2.06,0-2.84a5.44,5.44,0,0,1,4.91,0C528.58,174.2,528.58,175.47,527.22,176.26Z" transform="translate(0 -0.15)"/><path class="cls-3" d="M508.49,162.61l9.6,5.54c1.18.68,1,1.86-.32,2.65h0a5.12,5.12,0,0,1-4.58.19l-9.61-5.55c-1.17-.68-1-1.86.33-2.64h0A5.06,5.06,0,0,1,508.49,162.61Z" transform="translate(0 -0.15)"/><g class="cls-11"><path class="cls-5" d="M400.94,241.94,346,210.24a2.43,2.43,0,0,1,0-4.21l81.24-46.91a9.1,9.1,0,0,1,9.06,0l54.92,31.71a2.43,2.43,0,0,1,0,4.21L410,241.94A9.05,9.05,0,0,1,400.94,241.94Z" transform="translate(0 -0.15)"/></g><polygon class="cls-3" points="436.4 164.24 428.38 159.61 430.13 158.6 438.15 163.23 436.4 164.24"/><polygon class="cls-3" points="443.24 168.19 439.24 165.87 440.98 164.86 444.99 167.18 443.24 168.19"/><polygon class="cls-3" points="434.67 167.97 431.25 166 433 164.99 436.42 166.96 434.67 167.97"/><polygon class="cls-3" points="440.39 171.27 436.38 168.96 438.13 167.95 442.14 170.26 440.39 171.27"/><polygon class="cls-3" points="442.91 177.46 427.15 168.36 428.9 167.35 444.65 176.45 442.91 177.46"/><polygon class="cls-3" points="397.95 195.45 382.2 186.36 383.95 185.35 399.7 194.44 397.95 195.45"/><polygon class="cls-3" points="404.01 198.95 400 196.64 401.75 195.63 405.76 197.94 404.01 198.95"/><polygon class="cls-3" points="426.47 172.7 423.06 170.73 424.8 169.72 428.22 171.69 426.47 172.7"/><polygon class="cls-3" points="432.19 176 428.19 173.69 429.93 172.68 433.94 174.99 432.19 176"/><polygon class="cls-3" points="427.62 178.09 418.96 173.09 420.7 172.09 429.37 177.09 427.62 178.09"/><polygon class="cls-3" points="433.41 181.44 429.4 179.13 431.15 178.12 435.16 180.43 433.41 181.44"/><polygon class="cls-3" points="439.24 184.8 435.23 182.49 436.98 181.48 440.99 183.79 439.24 184.8"/><polygon class="cls-3" points="448.64 190.23 441.06 185.85 442.81 184.84 450.39 189.22 448.64 190.23"/><polygon class="cls-3" points="435.9 192.34 431.89 190.03 433.64 189.02 437.65 191.33 435.9 192.34"/><polygon class="cls-3" points="445.3 197.77 437.72 193.39 439.47 192.38 447.05 196.76 445.3 197.77"/><polygon class="cls-3" points="414.77 180.14 410.76 177.83 412.51 176.82 416.52 179.13 414.77 180.14"/><polygon class="cls-3" points="420.6 183.5 416.59 181.19 418.33 180.18 422.34 182.5 420.6 183.5"/><polygon class="cls-3" points="430 188.93 422.41 184.56 424.16 183.55 431.75 187.93 430 188.93"/><polygon class="cls-3" points="445.69 193.26 441.68 190.95 443.43 189.94 447.44 192.25 445.69 193.26"/><polygon class="cls-3" points="451.52 196.63 447.51 194.31 449.26 193.3 453.26 195.62 451.52 196.63"/><polygon class="cls-3" points="410.28 202.57 406.27 200.26 408.02 199.25 412.03 201.56 410.28 202.57"/><polygon class="cls-3" points="419.69 208 412.1 203.62 413.85 202.61 421.44 206.99 419.69 208"/><polygon class="cls-3" points="406.57 184.87 402.56 182.56 404.31 181.55 408.32 183.87 406.57 184.87"/><polygon class="cls-3" points="415.97 190.3 408.39 185.92 410.14 184.91 417.72 189.29 415.97 190.3"/><polygon class="cls-3" points="411.28 207.88 407.27 205.57 409.02 204.56 413.03 206.87 411.28 207.88"/><polygon class="cls-3" points="420.68 213.31 413.1 208.93 414.85 207.92 422.43 212.3 420.68 213.31"/><polygon class="cls-3" points="454.89 184.37 450.88 182.06 452.63 181.05 456.64 183.37 454.89 184.37"/><polygon class="cls-3" points="448.83 180.88 444.82 178.56 446.57 177.55 450.58 179.87 448.83 180.88"/><polygon class="cls-3" points="464.29 189.8 456.71 185.42 458.45 184.41 466.04 188.79 464.29 189.8"/><polygon class="cls-3" points="418.48 177.55 414.86 175.46 416.61 174.45 420.22 176.54 418.48 177.55"/><polygon class="cls-3" points="429.2 183.74 420.41 178.66 422.16 177.66 430.95 182.73 429.2 183.74"/><polygon class="cls-3" points="439.92 189.93 431.13 184.86 432.88 183.85 441.67 188.92 439.92 189.93"/><polygon class="cls-3" points="415.53 185.31 406.74 180.24 408.49 179.23 417.28 184.3 415.53 185.31"/><polygon class="cls-3" points="420.16 187.99 417.46 186.43 419.21 185.42 421.91 186.98 420.16 187.99"/><polygon class="cls-3" points="424.81 190.67 422.11 189.11 423.86 188.1 426.56 189.66 424.81 190.67"/><polygon class="cls-3" points="433.39 195.63 426.75 191.79 428.5 190.78 435.14 194.62 433.39 195.63"/><polygon class="cls-3" points="435.2 196.67 428.56 192.83 430.3 191.82 436.94 195.66 435.2 196.67"/><polygon class="cls-3" points="453.13 192.82 450.43 191.26 452.17 190.25 454.87 191.81 453.13 192.82"/><polygon class="cls-3" points="389.63 200.11 380.97 195.12 382.72 194.11 391.38 199.1 389.63 200.11"/><polygon class="cls-3" points="395.43 203.46 391.42 201.15 393.17 200.14 397.18 202.45 395.43 203.46"/><polygon class="cls-3" points="401.25 206.82 397.25 204.51 399 203.5 403 205.82 401.25 206.82"/><polygon class="cls-3" points="410.66 212.25 403.07 207.88 404.82 206.87 412.41 211.25 410.66 212.25"/><polygon class="cls-3" points="397.72 214.25 393.71 211.94 395.46 210.93 399.47 213.24 397.72 214.25"/><polygon class="cls-3" points="407.12 219.68 399.54 215.3 401.29 214.29 408.87 218.67 407.12 219.68"/><polygon class="cls-3" points="376.78 202.16 372.77 199.85 374.52 198.84 378.53 201.15 376.78 202.16"/><polygon class="cls-3" points="382.61 205.53 378.6 203.21 380.35 202.2 384.36 204.52 382.61 205.53"/><polygon class="cls-3" points="392.01 210.95 384.43 206.57 386.18 205.57 393.76 209.94 392.01 210.95"/><polygon class="cls-3" points="380.49 199.57 376.87 197.48 378.62 196.47 382.24 198.56 380.49 199.57"/><polygon class="cls-3" points="391.21 205.76 382.42 200.69 384.17 199.68 392.96 204.75 391.21 205.76"/><polygon class="cls-3" points="401.94 211.95 393.15 206.88 394.9 205.87 403.69 210.94 401.94 211.95"/><polygon class="cls-3" points="370.45 203.24 361.67 198.16 363.41 197.16 372.2 202.23 370.45 203.24"/><polygon class="cls-3" points="375.09 205.92 372.39 204.36 374.14 203.35 376.84 204.91 375.09 205.92"/><polygon class="cls-3" points="379.73 208.6 377.03 207.04 378.78 206.03 381.48 207.59 379.73 208.6"/><polygon class="cls-3" points="356.24 230.14 353.54 228.59 355.29 227.58 357.99 229.13 356.24 230.14"/><polygon class="cls-3" points="388.32 213.55 381.68 209.72 383.42 208.71 390.07 212.54 388.32 213.55"/><polygon class="cls-3" points="390.12 214.59 383.48 210.76 385.23 209.75 391.87 213.59 390.12 214.59"/><polygon class="cls-3" points="387.89 194.38 385.19 192.82 386.94 191.81 389.64 193.37 387.89 194.38"/><polygon class="cls-3" points="396.48 199.34 389.84 195.5 391.59 194.49 398.23 198.33 396.48 199.34"/><polygon class="cls-3" points="405.25 204.4 398.61 200.56 400.36 199.56 407 203.39 405.25 204.4"/><polygon class="cls-3" points="394.27 182.51 391.58 180.95 393.32 179.94 396.02 181.5 394.27 182.51"/><polygon class="cls-3" points="402.86 187.46 396.22 183.63 397.97 182.62 404.61 186.46 402.86 187.46"/><polygon class="cls-3" points="411.63 192.53 404.99 188.69 406.74 187.69 413.38 191.52 411.63 192.53"/><path class="cls-3" d="M405.47,235.63a9.21,9.21,0,0,1-4.63-1.24l-54.92-31.71a2.59,2.59,0,0,1-1.31-2.27,2.62,2.62,0,0,1,1.31-2.28l81.25-46.9a9.26,9.26,0,0,1,9.25,0l54.92,31.71a2.59,2.59,0,0,1,1.31,2.27,2.62,2.62,0,0,1-1.31,2.28l-81.24,46.9A9.21,9.21,0,0,1,405.47,235.63Zm26.32-85.24a8.86,8.86,0,0,0-4.43,1.18l-81.24,46.91a2.23,2.23,0,0,0,0,3.86L401,234.05a8.87,8.87,0,0,0,8.86,0l81.24-46.91a2.22,2.22,0,0,0,0-3.86l-54.92-31.71A8.83,8.83,0,0,0,431.79,150.39Z" transform="translate(0 -0.15)"/><path class="cls-10" d="M374.2,257.14l-54.92-31.71a2.43,2.43,0,0,1,0-4.21l8.38-4.88a9.05,9.05,0,0,1,9.06,0l54.92,31.71a2.42,2.42,0,0,1,0,4.2l-8.38,4.89A9.1,9.1,0,0,1,374.2,257.14Z" transform="translate(0 -0.15)"/><polygon class="cls-3" points="346.7 224.57 337.92 219.5 339.66 218.49 348.45 223.56 346.7 224.57"/><polygon class="cls-3" points="371.48 239.24 368.78 237.68 370.53 236.67 373.23 238.23 371.48 239.24"/><polygon class="cls-3" points="351.8 227.59 349.1 226.03 350.85 225.02 353.54 226.58 351.8 227.59"/><path class="cls-3" d="M378.73,250.82a9.21,9.21,0,0,1-4.63-1.24l-54.92-31.7a2.62,2.62,0,0,1-1.31-2.28,2.59,2.59,0,0,1,1.31-2.27l8.38-4.89a9.28,9.28,0,0,1,9.26,0l54.92,31.71a2.62,2.62,0,0,1,1.31,2.28,2.59,2.59,0,0,1-1.31,2.27l-8.39,4.88A9.15,9.15,0,0,1,378.73,250.82ZM332.19,207.6a8.87,8.87,0,0,0-4.43,1.19l-8.38,4.88a2.22,2.22,0,0,0,0,3.86l54.92,31.71a8.87,8.87,0,0,0,8.86,0l8.38-4.88a2.23,2.23,0,0,0,0-3.87l-54.92-31.7A8.84,8.84,0,0,0,332.19,207.6Z" transform="translate(0 -0.15)"/><path class="cls-3" d="M364,282a13.9,13.9,0,0,1-6.81-1.56l-88.78-51.27a4.81,4.81,0,0,1-2.77-4.05c0-1.89,1.41-3.8,3.88-5.22l172.33-99.47c4.62-2.66,11.64-2.95,15.65-.64L546.28,171a4.79,4.79,0,0,1,2.77,4c0,1.9-1.41,3.8-3.88,5.22L372.85,279.75A18.18,18.18,0,0,1,364,282ZM357.39,280c3.9,2.26,10.75,2,15.26-.64L545,179.94c2.34-1.35,3.69-3.13,3.69-4.88a4.43,4.43,0,0,0-2.58-3.7L457.3,120.09c-3.9-2.25-10.74-2-15.26.64L269.72,220.19c-2.34,1.36-3.68,3.13-3.68,4.88a4.42,4.42,0,0,0,2.57,3.7Z" transform="translate(0 -0.15)"/><path class="cls-3" d="M273.59,231.85a.18.18,0,0,1-.17-.11.2.2,0,0,1,.08-.27c3.94-2.16,7.43-7,8.69-12l16.09-63.92c2-7.85,8.18-13.27,12.74-13.41,2.35,0,4.06,1.26,4.84,3.75l4.54,14.4a4.67,4.67,0,0,0,2.68,3.12c1.55.61,3.53.3,5.59-.86l3.24-1.84c3.68-2.07,7.06-6.62,8.41-11.31,2.15-7.49,8.05-12.47,12.27-12.79a4.68,4.68,0,0,1,4.84,2.92l5,10.91a4.39,4.39,0,0,0,2.63,2.45,6.84,6.84,0,0,0,5.34-.95l3.72-2.1c3.93-2.22,7.48-7.23,8.63-12.19L398.9,68.61c1.81-7.76,8.12-13.45,12.66-13.7a4.72,4.72,0,0,1,4.92,3.49l24.54,69a4.6,4.6,0,0,0,2.67,2.91,6.68,6.68,0,0,0,5.51-.88l12.56-7.1a.19.19,0,1,1,.19.34l-12.55,7.1a7.08,7.08,0,0,1-5.85.91,4.94,4.94,0,0,1-2.9-3.15l-24.55-69a4.29,4.29,0,0,0-4.52-3.22c-4.4.24-10.52,5.8-12.29,13.39l-16.12,69.06c-1.2,5.14-4.74,10.14-8.82,12.45l-3.72,2.1a7.23,7.23,0,0,1-5.66,1,4.79,4.79,0,0,1-2.87-2.67l-5-10.91a4.25,4.25,0,0,0-4.45-2.68c-4.09.31-9.81,5.18-11.92,12.5-1.38,4.78-4.83,9.42-8.59,11.55l-3.25,1.84c-2.16,1.22-4.27,1.53-5.93.87a5,5,0,0,1-2.9-3.36L315.48,146c-.73-2.33-2.27-3.56-4.44-3.47-4.33.13-10.48,5.54-12.38,13.11l-16.08,63.92c-1.29,5.1-4.86,10-8.89,12.23A.19.19,0,0,1,273.59,231.85Z" transform="translate(0 -0.15)"/><path class="cls-3" d="M287.11,239.78a.2.2,0,0,1-.1-.38c3.95-2.16,7.44-7,8.7-12l16.08-63.92c2-7.85,8.19-13.27,12.75-13.4,2.34-.06,4,1.26,4.84,3.74l4.54,14.4a4.68,4.68,0,0,0,2.67,3.12c1.55.61,3.54.3,5.59-.86l3.25-1.84c3.68-2.07,7.05-6.62,8.4-11.31,2.16-7.49,8.06-12.46,12.28-12.78a4.66,4.66,0,0,1,4.84,2.91l5,10.91a4.39,4.39,0,0,0,2.63,2.45,6.84,6.84,0,0,0,5.34-.94l3.72-2.11c3.92-2.22,7.47-7.23,8.63-12.19l16.12-69.06c1.81-7.76,8.12-13.44,12.65-13.7A4.71,4.71,0,0,1,430,66.33l24.55,69a4.56,4.56,0,0,0,2.66,2.91,6.7,6.7,0,0,0,5.52-.88l12.66-7.16a.2.2,0,1,1,.2.34l-12.66,7.16a7.1,7.1,0,0,1-5.86.91,5,5,0,0,1-2.9-3.15l-24.54-69a4.31,4.31,0,0,0-4.53-3.22c-4.39.24-10.52,5.8-12.29,13.39l-16.11,69.06c-1.2,5.14-4.75,10.14-8.83,12.45l-3.72,2.1a7.21,7.21,0,0,1-5.65,1,4.77,4.77,0,0,1-2.87-2.67l-5-10.9a4.26,4.26,0,0,0-4.45-2.69c-4.09.31-9.82,5.18-11.92,12.5-1.38,4.78-4.83,9.42-8.59,11.55l-3.25,1.84c-2.16,1.22-4.27,1.53-5.93.88a5.07,5.07,0,0,1-2.91-3.37L329,154c-.74-2.33-2.27-3.55-4.45-3.47-4.32.13-10.47,5.54-12.37,13.11l-16.09,63.92c-1.28,5.11-4.85,10-8.89,12.23A.16.16,0,0,1,287.11,239.78Z" transform="translate(0 -0.15)"/><path class="cls-3" d="M427.75,63.85l-.1,0-13.63-8a.21.21,0,0,1-.07-.27.19.19,0,0,1,.27-.07l13.63,8a.21.21,0,0,1,.07.28A.2.2,0,0,1,427.75,63.85Z" transform="translate(0 -0.15)"/><path class="cls-3" d="M369.22,145.78a.19.19,0,0,1-.1,0l-13.79-8.11a.22.22,0,0,1-.07-.28.21.21,0,0,1,.27-.07l13.79,8.12a.19.19,0,0,1,.07.27A.21.21,0,0,1,369.22,145.78Z" transform="translate(0 -0.15)"/><path class="cls-3" d="M327.39,151.34a.17.17,0,0,1-.1,0l-14.37-8.42a.19.19,0,0,1-.07-.27.19.19,0,0,1,.27-.07L327.49,151a.2.2,0,0,1-.1.37Z" transform="translate(0 -0.15)"/><path class="cls-3" d="M273.59,231.85a.18.18,0,0,1-.17-.11.2.2,0,0,1,.08-.27c3.94-2.16,7.43-7,8.69-12l16.09-63.92c2-7.85,8.18-13.27,12.74-13.41,2.35,0,4.06,1.26,4.84,3.75l4.54,14.4a4.67,4.67,0,0,0,2.68,3.12c1.55.61,3.53.3,5.59-.86l3.24-1.84c3.68-2.07,7.06-6.62,8.41-11.31,2.15-7.49,8.05-12.47,12.27-12.79a4.68,4.68,0,0,1,4.84,2.92l5,10.91a4.39,4.39,0,0,0,2.63,2.45,6.84,6.84,0,0,0,5.34-.95l3.72-2.1c3.93-2.22,7.48-7.23,8.63-12.19L398.9,68.61c1.81-7.76,8.12-13.45,12.66-13.7a4.72,4.72,0,0,1,4.92,3.49l24.54,69a4.6,4.6,0,0,0,2.67,2.91,6.68,6.68,0,0,0,5.51-.88l12.56-7.1a.19.19,0,1,1,.19.34l-12.55,7.1a7.08,7.08,0,0,1-5.85.91,4.94,4.94,0,0,1-2.9-3.15l-24.55-69a4.29,4.29,0,0,0-4.52-3.22c-4.4.24-10.52,5.8-12.29,13.39l-16.12,69.06c-1.2,5.14-4.74,10.14-8.82,12.45l-3.72,2.1a7.23,7.23,0,0,1-5.66,1,4.79,4.79,0,0,1-2.87-2.67l-5-10.91a4.25,4.25,0,0,0-4.45-2.68c-4.09.31-9.81,5.18-11.92,12.5-1.38,4.78-4.83,9.42-8.59,11.55l-3.25,1.84c-2.16,1.22-4.27,1.53-5.93.87a5,5,0,0,1-2.9-3.36L315.48,146c-.73-2.33-2.27-3.56-4.44-3.47-4.33.13-10.48,5.54-12.38,13.11l-16.08,63.92c-1.29,5.1-4.86,10-8.89,12.23A.19.19,0,0,1,273.59,231.85Z" transform="translate(0 -0.15)"/><path class="cls-3" d="M287.11,239.78a.2.2,0,0,1-.1-.38c3.95-2.16,7.44-7,8.7-12l16.08-63.92c2-7.85,8.19-13.27,12.75-13.4,2.34-.06,4,1.26,4.84,3.74l4.54,14.4a4.68,4.68,0,0,0,2.67,3.12c1.55.61,3.54.3,5.59-.86l3.25-1.84c3.68-2.07,7.05-6.62,8.4-11.31,2.16-7.49,8.06-12.46,12.28-12.78a4.66,4.66,0,0,1,4.84,2.91l5,10.91a4.39,4.39,0,0,0,2.63,2.45,6.84,6.84,0,0,0,5.34-.94l3.72-2.11c3.92-2.22,7.47-7.23,8.63-12.19l16.12-69.06c1.81-7.76,8.12-13.44,12.65-13.7A4.71,4.71,0,0,1,430,66.33l24.55,69a4.56,4.56,0,0,0,2.66,2.91,6.7,6.7,0,0,0,5.52-.88l12.66-7.16a.2.2,0,1,1,.2.34l-12.66,7.16a7.1,7.1,0,0,1-5.86.91,5,5,0,0,1-2.9-3.15l-24.54-69a4.31,4.31,0,0,0-4.53-3.22c-4.39.24-10.52,5.8-12.29,13.39l-16.11,69.06c-1.2,5.14-4.75,10.14-8.83,12.45l-3.72,2.1a7.21,7.21,0,0,1-5.65,1,4.77,4.77,0,0,1-2.87-2.67l-5-10.9a4.26,4.26,0,0,0-4.45-2.69c-4.09.31-9.82,5.18-11.92,12.5-1.38,4.78-4.83,9.42-8.59,11.55l-3.25,1.84c-2.16,1.22-4.27,1.53-5.93.88a5.07,5.07,0,0,1-2.91-3.37L329,154c-.74-2.33-2.27-3.55-4.45-3.47-4.32.13-10.47,5.54-12.37,13.11l-16.09,63.92c-1.28,5.11-4.85,10-8.89,12.23A.16.16,0,0,1,287.11,239.78Z" transform="translate(0 -0.15)"/><path class="cls-12" d="M461.86,122.49l-12.56,7.1c-3.84,2.17-7.24,1.31-8.47-2.14l-24.54-69c-2.8-7.88-14.61-.89-17.2,10.18L383,137.71c-1.18,5-4.73,10.06-8.73,12.32l-3.72,2.11c-3.61,2-6.86,1.41-8.25-1.6l-5-10.91c-3.11-6.76-13.76-.5-16.74,9.84h0c-1.38,4.77-4.76,9.32-8.5,11.44l-3.25,1.83c-3.94,2.23-7.4,1.27-8.55-2.37L315.67,146c-2.56-8.13-14.4-1.49-17.2,9.65l-16.08,63.92c-1.27,5-4.83,9.93-8.8,12.11Z" transform="translate(0 -0.15)"/><path class="cls-13" d="M475.61,130.09l-12.79,7.23c-3.84,2.17-7.24,1.32-8.47-2.13l-24.54-69c-2.81-7.88-14.62-.89-17.2,10.18L396.5,145.45c-1.18,5-4.73,10.06-8.73,12.32l-3.72,2.1c-3.62,2-6.86,1.42-8.25-1.6l-5-10.9c-3.12-6.77-13.76-.51-16.74,9.83h0c-1.38,4.78-4.76,9.32-8.5,11.44l-3.25,1.84c-3.94,2.23-7.4,1.26-8.55-2.38l-4.54-14.4c-2.56-8.13-14.4-1.48-17.2,9.65L295.9,227.27c-1.26,5-4.83,9.94-8.79,12.11Z" transform="translate(0 -0.15)"/><path class="cls-14" d="M328.33,135.67A3.6,3.6,0,1,0,332,132.1,3.6,3.6,0,0,0,328.33,135.67Z" transform="translate(0 -0.15)"/><path class="cls-3" d="M330.37,135.68a1.56,1.56,0,1,0,1.57-1.55A1.56,1.56,0,0,0,330.37,135.68Z" transform="translate(0 -0.15)"/><path class="cls-14" d="M383.53,73.23a3.6,3.6,0,1,0,3.63-3.56A3.61,3.61,0,0,0,383.53,73.23Z" transform="translate(0 -0.15)"/><path class="cls-3" d="M385.57,73.25a1.56,1.56,0,1,0,1.57-1.55A1.56,1.56,0,0,0,385.57,73.25Z" transform="translate(0 -0.15)"/><path class="cls-14" d="M280.55,147.83a3.61,3.61,0,1,0,3.64-3.57A3.6,3.6,0,0,0,280.55,147.83Z" transform="translate(0 -0.15)"/><path class="cls-3" d="M282.59,147.84a1.57,1.57,0,1,0,1.58-1.54A1.56,1.56,0,0,0,282.59,147.84Z" transform="translate(0 -0.15)"/><polygon class="cls-15" points="491.35 316.99 407.64 268.65 507.15 211.2 590.86 259.54 491.35 316.99"/><rect class="cls-3" x="399.94" y="239.88" width="114.9" height="0.4" transform="translate(-58.78 260.38) rotate(-29.96)"/><path class="cls-3" d="M490,296.55a6.6,6.6,0,0,1-3.33-.89L447.4,273a1.93,1.93,0,0,1,0-3.35l58.06-33.52a6.68,6.68,0,0,1,6.67,0l39.25,22.66a1.93,1.93,0,0,1,0,3.35l-58.06,33.52A6.61,6.61,0,0,1,490,296.55Zm-3.13-1.23a6.27,6.27,0,0,0,6.27,0l58.06-33.52a1.54,1.54,0,0,0,0-2.67l-39.25-22.66a6.32,6.32,0,0,0-6.27,0L447.59,270a1.5,1.5,0,0,0-.76,1.33,1.52,1.52,0,0,0,.76,1.33Z" transform="translate(0 -0.15)"/><polygon class="cls-3" points="499.4 258.31 493.24 254.75 494.77 253.87 500.93 257.43 499.4 258.31"/><polygon class="cls-16" points="504.66 261.35 501.58 259.57 503.11 258.68 506.19 260.46 504.66 261.35"/><polygon class="cls-16" points="495.81 260.38 489.65 256.83 491.19 255.94 497.34 259.5 495.81 260.38"/><polygon class="cls-16" points="501.07 263.42 497.99 261.64 499.52 260.76 502.6 262.53 501.07 263.42"/><polygon class="cls-3" points="492.22 262.45 486.06 258.9 487.6 258.01 493.75 261.57 492.22 262.45"/><polygon class="cls-3" points="497.48 265.49 494.4 263.71 495.93 262.83 499.01 264.61 497.48 265.49"/><polygon class="cls-3" points="488.64 264.53 482.48 260.97 484.01 260.09 490.17 263.64 488.64 264.53"/><polygon class="cls-3" points="493.89 267.56 490.81 265.78 492.34 264.9 495.42 266.68 493.89 267.56"/><polygon class="cls-3" points="485.05 266.6 478.89 263.04 480.42 262.16 486.58 265.71 485.05 266.6"/><polygon class="cls-3" points="490.3 269.63 487.22 267.86 488.75 266.97 491.83 268.75 490.3 269.63"/><polygon class="cls-3" points="481.46 268.67 475.3 265.11 476.83 264.23 482.99 267.79 481.46 268.67"/><polygon class="cls-3" points="486.71 271.7 483.63 269.93 485.17 269.04 488.25 270.82 486.71 271.7"/><polygon class="cls-3" points="477.87 270.74 471.71 267.19 473.24 266.3 479.4 269.86 477.87 270.74"/><polygon class="cls-16" points="483.13 273.78 480.05 272 481.58 271.12 484.66 272.89 483.13 273.78"/><polygon class="cls-3" points="474.28 272.81 468.12 269.26 469.65 268.38 475.81 271.93 474.28 272.81"/><polygon class="cls-16" points="479.54 275.85 476.46 274.07 477.99 273.19 481.07 274.96 479.54 275.85"/><polygon class="cls-3" points="513.08 266.29 506.92 262.73 508.45 261.85 514.61 265.4 513.08 266.29"/><polygon class="cls-3" points="518.34 269.32 515.26 267.54 516.79 266.66 519.87 268.44 518.34 269.32"/><polygon class="cls-3" points="509.49 268.36 503.33 264.8 504.86 263.92 511.02 267.48 509.49 268.36"/><polygon class="cls-3" points="514.75 271.39 511.67 269.62 513.2 268.73 516.28 270.51 514.75 271.39"/><polygon class="cls-3" points="505.9 270.43 499.75 266.87 501.28 265.99 507.44 269.55 505.9 270.43"/><polygon class="cls-3" points="511.16 273.46 508.08 271.69 509.61 270.8 512.69 272.58 511.16 273.46"/><polygon class="cls-3" points="510.11 252.13 503.95 248.57 505.48 247.69 511.64 251.25 510.11 252.13"/><polygon class="cls-3" points="515.36 255.16 512.28 253.39 513.82 252.5 516.89 254.28 515.36 255.16"/><polygon class="cls-3" points="506.52 254.2 500.36 250.65 501.89 249.76 508.05 253.32 506.52 254.2"/><polygon class="cls-3" points="511.77 257.24 508.7 255.46 510.23 254.57 513.31 256.35 511.77 257.24"/><polygon class="cls-3" points="502.93 256.27 496.77 252.72 498.3 251.83 504.46 255.39 502.93 256.27"/><polygon class="cls-3" points="508.19 259.31 505.11 257.53 506.64 256.65 509.72 258.43 508.19 259.31"/><polygon class="cls-3" points="523.79 260.11 517.63 256.55 519.16 255.67 525.32 259.22 523.79 260.11"/><polygon class="cls-3" points="529.04 263.14 525.96 261.36 527.5 260.48 530.57 262.26 529.04 263.14"/><polygon class="cls-16" points="520.2 262.18 514.04 258.62 515.57 257.74 521.73 261.29 520.2 262.18"/><polygon class="cls-3" points="525.46 265.21 522.38 263.43 523.91 262.55 526.99 264.33 525.46 265.21"/><polygon class="cls-3" points="516.61 264.25 510.45 260.69 511.98 259.81 518.14 263.37 516.61 264.25"/><polygon class="cls-3" points="521.87 267.28 518.79 265.5 520.32 264.62 523.4 266.4 521.87 267.28"/><polygon class="cls-3" points="502.32 272.5 496.16 268.95 497.69 268.06 503.85 271.62 502.32 272.5"/><polygon class="cls-3" points="507.57 275.54 504.49 273.76 506.02 272.88 509.1 274.65 507.57 275.54"/><polygon class="cls-16" points="498.73 274.57 492.57 271.02 494.1 270.13 500.26 273.69 498.73 274.57"/><polygon class="cls-3" points="503.98 277.61 500.9 275.83 502.43 274.95 505.51 276.73 503.98 277.61"/><polygon class="cls-3" points="495.14 276.65 488.98 273.09 490.51 272.21 496.67 275.76 495.14 276.65"/><polygon class="cls-3" points="500.39 279.68 497.31 277.9 498.85 277.02 501.93 278.8 500.39 279.68"/><polygon class="cls-3" points="491.55 278.72 485.39 275.16 486.92 274.28 493.08 277.83 491.55 278.72"/><polygon class="cls-3" points="496.81 281.75 493.73 279.97 495.26 279.09 498.34 280.87 496.81 281.75"/><polygon class="cls-3" points="488.03 280.75 481.87 277.19 483.4 276.31 489.56 279.87 488.03 280.75"/><polygon class="cls-3" points="493.28 283.79 490.2 282.01 491.74 281.12 494.81 282.9 493.28 283.79"/></g></g></svg>