<svg id="Capa_1" data-name="Capa 1" xmlns="http://www.w3.org/2000/svg" viewBox="0 0 349 63.4"><defs><style>.cls-1{fill:#009b3a;}.cls-2{fill:#3660a5;}</style></defs><title>logo_interbank</title><path class="cls-1" d="M172,18.4c-10,0-17,7.2-17.1,18.9A17,17,0,0,0,172,54.5c5.2,0,8.4-.8,10.2-2.3V46.3a20,20,0,0,1-8.6,1.7c-5.3,0-9.6-2.9-10.3-7.6l-.1-.4h6.2c5.9,0,10-.5,12.6-1.8s3.7-3.2,3.7-6.4c.2-8.3-6.5-13.4-13.7-13.4m4.1,15.3c-1.6.6-4.2.8-8.4.8h-4.3v-.4l.1-1.2c.2-4.2,3.3-7.9,7.8-7.9a7.92,7.92,0,0,1,5.1,1.4,5,5,0,0,1,2,4.3,3.06,3.06,0,0,1-2.3,3m14.1-1.8v22h8.2V33.5c0-2.7.5-4.7,1.7-6a6,6,0,0,1,4.8-1.9,13.79,13.79,0,0,1,2.2.2V19.3a9.49,9.49,0,0,0-4.2-.8c-9.1-.1-12.7,6.4-12.7,13.4M82.6,53.9h8.2V9.5H82.6Zm30.2-35.5c-10.9,0-15.7,7.5-15.7,14.8V53.9h8.1V33.8a9.26,9.26,0,0,1,1.9-6.1,6.29,6.29,0,0,1,4.9-2.2,7.17,7.17,0,0,1,5.6,2.2c1.3,1.5,2,3.8,2,6.8V54h8.1V33.7c0-9.9-6.7-15.3-14.9-15.3m29.3-8.9H134v32c0,8.1,4.1,12.9,13,13,3.8,0,6-1.2,6.9-3.2v-5a15.9,15.9,0,0,1-5.9.9,5.82,5.82,0,0,1-4.4-1.6,7.4,7.4,0,0,1-1.6-5.1v-15h7.1c3.5,0,4.9-2.2,4.9-3.8V18.5H142v-9Zm154.3,8.9c-10.9,0-15.7,7.5-15.7,14.8V53.9h8.1V33.8a9.26,9.26,0,0,1,1.9-6.1,6.5,6.5,0,0,1,5-2.2,7.17,7.17,0,0,1,5.6,2.2c1.3,1.5,2,3.7,2,6.8V54h8.1V33.7c0-9.9-6.7-15.3-15-15.3m-67.7,0c-4.6,0-7.4,2.7-9.2,5.2l-.7,1V9.5h-8.1V37c0,11.7,7,17.5,16.2,17.5,10.4,0,17-8.2,17-18.7.1-10.2-6.5-17.4-15.2-17.4m-.8,29.2h0c-2.7,0-5.1-.8-6.6-2.7s-2.3-5-2.3-9.1c0-5.6,3.4-10.3,8.1-10.3,2.7,0,4.9.7,6.4,2.7s2.3,4.8,2.3,9.2c-.1,5.8-3.3,10.2-7.9,10.2m32.8-29.2c-4.9,0-8.2,1.3-10.4,3.1v5.7a20.45,20.45,0,0,1,9.1-2c2.7,0,5,.4,6.4,1.5s2,2.8,2,5.4v.8h-3.5c-13,.1-17.3,4.7-17.3,10.7,0,6.3,5.6,10.9,13.9,10.9h1.8c7.8,0,13.1-5,13.1-12.3V34.1c-.1-12.5-7.3-15.6-15.1-15.7m7.1,23.9a5.77,5.77,0,0,1-1.5,4.3,6.27,6.27,0,0,1-4.5,1.5h0a8.53,8.53,0,0,1-4.8-1.2,4.22,4.22,0,0,1-1.8-3.5,3.73,3.73,0,0,1,2-3.6c1.4-.8,3.6-1.2,7-1.2h3.5C267.8,38.5,267.8,42.3,267.8,42.3Z"/><path class="cls-1" d="M334.6,35.5l-.2-.2.2-.2c3.6-4.5,11.3-13.2,14.2-15.8h-4.5c-2.8,0-4.8.3-6.8,2.2-4.1,3.8-7.4,8.3-10.9,12.8l-.7.8V9.5h-8.2V53.8h8.2v-18l.7.9A163.08,163.08,0,0,0,339,51.8a8.5,8.5,0,0,0,5.6,2.3c2.2,0,3.5-.6,4.4-1.7-2.3-2.6-11.6-13.5-14.4-16.9"/><path class="cls-2" d="M8.5,0A8.49,8.49,0,0,0,0,8.5V63.4H54.9a8.49,8.49,0,0,0,8.5-8.5V0ZM48.7,45.8,14.9,51.9V17.8l33.8-6.1V45.8Z"/></svg>