<svg id="Capa_1" data-name="Capa 1" xmlns="http://www.w3.org/2000/svg" xmlns:xlink="http://www.w3.org/1999/xlink" viewBox="0 0 328.72 262.24"><defs><style>.cls-1,.cls-12,.cls-14{fill:#42e8e0;}.cls-2{fill:url(#Degradado_sin_nombre_2);}.cls-3,.cls-8{fill:#24126a;}.cls-4{fill:#fff;}.cls-5{fill:#453c9e;opacity:0.51;}.cls-10,.cls-11,.cls-12,.cls-13,.cls-14,.cls-5,.cls-6,.cls-7,.cls-8{isolation:isolate;}.cls-10,.cls-11,.cls-13,.cls-14,.cls-6{opacity:0.5;}.cls-6{fill:url(#Degradado_sin_nombre_3);}.cls-7{opacity:0.8;fill:url(#Degradado_sin_nombre_4);}.cls-12,.cls-8,.cls-9{opacity:0.4;}.cls-10{fill:url(#Degradado_sin_nombre_5);}.cls-11{fill:url(#Degradado_sin_nombre_6);}.cls-13{fill:url(#Degradado_sin_nombre_7);}</style><linearGradient id="Degradado_sin_nombre_2" x1="262.29" y1="137.26" x2="552.57" y2="137.26" gradientTransform="matrix(1, 0, 0, -1, 0, 349.85)" gradientUnits="userSpaceOnUse"><stop offset="0" stop-color="#bcbeff"/><stop offset="0.15" stop-color="#a3a7f5"/><stop offset="0.39" stop-color="#8289e8"/><stop offset="0.61" stop-color="#6a73df"/><stop offset="0.82" stop-color="#5c66d9"/><stop offset="1" stop-color="#5761d7"/></linearGradient><radialGradient id="Degradado_sin_nombre_3" cx="364.89" cy="133.19" r="227.21" gradientTransform="matrix(1, 0, 0, -1, 0, 349.85)" gradientUnits="userSpaceOnUse"><stop offset="0" stop-color="#42e8e0"/><stop offset="0.11" stop-color="#37b6bf"/><stop offset="0.22" stop-color="#2c87a1"/><stop offset="0.34" stop-color="#235f87"/><stop offset="0.46" stop-color="#1c3f72"/><stop offset="0.58" stop-color="#162561"/><stop offset="0.71" stop-color="#121355"/><stop offset="0.85" stop-color="#10084e"/><stop offset="1" stop-color="#0f054c"/></radialGradient><linearGradient id="Degradado_sin_nombre_4" x1="447.87" y1="96.17" x2="366.82" y2="203.73" gradientTransform="matrix(1, 0, 0, -1, 0, 349.85)" xlink:href="#Degradado_sin_nombre_3"/><linearGradient id="Degradado_sin_nombre_5" x1="809.44" y1="259.1" x2="715.17" y2="97.01" gradientTransform="translate(1127.6 361.47) rotate(-179.43)" xlink:href="#Degradado_sin_nombre_3"/><linearGradient id="Degradado_sin_nombre_6" x1="790.65" y1="232.16" x2="723.16" y2="133.01" gradientTransform="translate(1127.6 361.47) rotate(-179.43)" xlink:href="#Degradado_sin_nombre_3"/><radialGradient id="Degradado_sin_nombre_7" cx="-1002.75" cy="416.25" r="146.62" gradientTransform="matrix(0.87, 0.5, 0.87, -0.5, 690.06, 886.34)" xlink:href="#Degradado_sin_nombre_3"/></defs><title>new</title><g id="Ñëîé_1" data-name="Ñëîé 1"><path class="cls-1" d="M364.05,310.85a14.43,14.43,0,0,1-7-1.61L265,256.13c-1.85-1.07-2.86-2.55-2.86-4.18,0-1.95,1.46-3.92,4-5.39L441.68,145.19c4.77-2.76,12-3.05,16.17-.66l92.06,53.15c1.85,1.07,2.86,2.55,2.86,4.18,0,2-1.46,3.91-4,5.38L373.18,308.62A18.89,18.89,0,0,1,364.05,310.85Zm-6.84-2c4,2.33,11.11,2,15.77-.66L548.56,206.9c2.43-1.4,3.82-3.24,3.82-5,0-1.48-1-2.84-2.67-3.84l-92.06-53.21c-4-2.33-11.11-2-15.77.66L266.29,246.9c-2.42,1.4-3.81,3.24-3.81,5,0,1.48.95,2.84,2.67,3.83Z" transform="translate(-262.14 -54.75)"/><path class="cls-2" d="M552.57,177.31l-13.22,2.27-81.6-47.11c-4.1-2.36-11.25-2.07-16,.66L285.66,223.26l-23.37,4v8.29h0a4.59,4.59,0,0,0,2.75,4L357.1,292.7c4.1,2.36,11.25,2.07,16-.66L548.66,190.73c2.55-1.47,3.86-3.35,3.9-5.13h0Z" transform="translate(-262.14 -54.75)"/><path class="cls-3" d="M357.11,284.42l-92.06-53.16c-4.09-2.36-3.58-6.49,1.15-9.22L441.78,120.67c4.72-2.73,11.87-3,16-.66l92.06,53.15c4.09,2.36,3.58,6.49-1.15,9.22L373.08,283.75C368.36,286.48,361.21,286.78,357.11,284.42Z" transform="translate(-262.14 -54.75)"/><path class="cls-4" d="M548.66,182.38,373.08,283.75c-4.72,2.73-11.87,3-16,.67L265,231.26a5,5,0,0,1-2.72-3.49c-.25,1.7.63,3.36,2.72,4.57l92.06,53.15c4.1,2.36,11.25,2.07,16-.66L548.66,183.46c2.84-1.64,4.14-3.77,3.87-5.73C552.28,179.37,551,181,548.66,182.38Z" transform="translate(-262.14 -54.75)"/><path class="cls-5" d="M357.29,282.36l-88.78-51.28c-4-2.28-3.46-6.28,1.11-8.92L442,122.7c4.57-2.65,11.49-2.93,15.45-.64l88.78,51.27c4,2.28,3.47,6.28-1.11,8.92L372.75,281.72C368.17,284.36,361.25,284.64,357.29,282.36Z" transform="translate(-262.14 -54.75)"/><path class="cls-6" d="M357.29,280.07l-88.78-51.28c-4-2.28-3.46-6.28,1.11-8.92L442,120.41c4.57-2.64,11.49-2.93,15.45-.64L546.23,171c4,2.29,3.47,6.28-1.11,8.92L372.75,279.43C368.17,282.07,361.25,282.35,357.29,280.07Z" transform="translate(-262.14 -54.75)"/><path class="cls-7" d="M364,281.85a13.94,13.94,0,0,1-6.85-1.58L268.37,229a4.88,4.88,0,0,1-2.82-4.12c0-1.92,1.43-3.86,3.93-5.3L441.8,120.16c4.65-2.68,11.71-3,15.74-.64l88.78,51.27a4.88,4.88,0,0,1,2.82,4.12c0,1.93-1.43,3.86-3.92,5.3L372.89,279.67A18.26,18.26,0,0,1,364,281.85Zm-6.56-2c3.87,2.24,10.68,1.95,15.16-.64l172.33-99.47c2.31-1.33,3.64-3.08,3.64-4.8a4.34,4.34,0,0,0-2.53-3.62L457.26,120c-3.88-2.23-10.68-2-15.17.64L269.76,220.12c-2.31,1.34-3.64,3.09-3.64,4.8a4.36,4.36,0,0,0,2.53,3.63Z" transform="translate(-262.14 -54.75)"/><path class="cls-8" d="M527.22,179.55a5.44,5.44,0,0,1-4.91,0c-1.35-.78-1.35-2,0-2.83a5.38,5.38,0,0,1,4.91,0C528.58,177.5,528.58,178.77,527.22,179.55Z" transform="translate(-262.14 -54.75)"/><path class="cls-8" d="M508.49,165.9l9.6,5.55c1.18.67,1,1.86-.32,2.64h0a5.07,5.07,0,0,1-4.58.19l-9.61-5.55c-1.17-.67-1-1.86.33-2.64h0A5.07,5.07,0,0,1,508.49,165.9Z" transform="translate(-262.14 -54.75)"/><path class="cls-1" d="M527.22,176.11a5.44,5.44,0,0,1-4.91,0c-1.35-.79-1.35-2.06,0-2.84a5.44,5.44,0,0,1,4.91,0C528.58,174.05,528.58,175.32,527.22,176.11Z" transform="translate(-262.14 -54.75)"/><path class="cls-1" d="M508.49,162.46l9.6,5.54c1.18.68,1,1.86-.32,2.65h0a5.13,5.13,0,0,1-4.58.19l-9.61-5.55c-1.17-.68-1-1.86.33-2.64h0A5.07,5.07,0,0,1,508.49,162.46Z" transform="translate(-262.14 -54.75)"/><g class="cls-9"><path class="cls-3" d="M400.94,241.79,346,210.09a2.43,2.43,0,0,1-.89-3.32,2.38,2.38,0,0,1,.89-.89L427.24,159a9.1,9.1,0,0,1,9.06,0l54.92,31.71a2.43,2.43,0,0,1,.89,3.32,2.38,2.38,0,0,1-.89.89L410,241.79A9.05,9.05,0,0,1,400.94,241.79Z" transform="translate(-262.14 -54.75)"/></g><polygon class="cls-1" points="174.26 109.49 166.24 104.86 167.99 103.85 176.01 108.48 174.26 109.49"/><polygon class="cls-1" points="181.1 113.44 177.1 111.12 178.84 110.11 182.85 112.43 181.1 113.44"/><polygon class="cls-1" points="172.53 113.22 169.11 111.25 170.86 110.24 174.28 112.21 172.53 113.22"/><polygon class="cls-1" points="178.25 116.52 174.24 114.21 175.99 113.2 180 115.51 178.25 116.52"/><polygon class="cls-1" points="180.77 122.71 165.01 113.61 166.76 112.6 182.51 121.7 180.77 122.71"/><polygon class="cls-1" points="135.81 140.7 120.06 131.61 121.81 130.6 137.56 139.69 135.81 140.7"/><polygon class="cls-1" points="141.87 144.2 137.86 141.89 139.61 140.88 143.62 143.19 141.87 144.2"/><polygon class="cls-1" points="164.33 117.95 160.92 115.98 162.66 114.97 166.08 116.94 164.33 117.95"/><polygon class="cls-1" points="170.05 121.25 166.05 118.94 167.79 117.93 171.8 120.24 170.05 121.25"/><polygon class="cls-1" points="165.48 123.34 156.82 118.34 158.56 117.34 167.23 122.34 165.48 123.34"/><polygon class="cls-1" points="171.27 126.69 167.26 124.38 169.01 123.37 173.02 125.68 171.27 126.69"/><polygon class="cls-1" points="177.1 130.05 173.09 127.74 174.84 126.73 178.85 129.04 177.1 130.05"/><polygon class="cls-1" points="186.5 135.48 178.92 131.1 180.67 130.09 188.25 134.47 186.5 135.48"/><polygon class="cls-1" points="173.76 137.59 169.75 135.28 171.5 134.27 175.51 136.58 173.76 137.59"/><polygon class="cls-1" points="183.16 143.02 175.58 138.64 177.33 137.63 184.91 142.01 183.16 143.02"/><polygon class="cls-1" points="152.63 125.39 148.62 123.08 150.37 122.07 154.38 124.38 152.63 125.39"/><polygon class="cls-1" points="158.46 128.75 154.45 126.44 156.19 125.43 160.2 127.75 158.46 128.75"/><polygon class="cls-1" points="167.86 134.18 160.27 129.81 162.02 128.8 169.61 133.18 167.86 134.18"/><polygon class="cls-1" points="183.55 138.51 179.54 136.2 181.29 135.19 185.3 137.5 183.55 138.51"/><polygon class="cls-1" points="189.38 141.88 185.37 139.56 187.12 138.55 191.12 140.87 189.38 141.88"/><polygon class="cls-1" points="148.14 147.82 144.13 145.51 145.88 144.5 149.89 146.81 148.14 147.82"/><polygon class="cls-1" points="157.55 153.25 149.96 148.87 151.71 147.86 159.3 152.24 157.55 153.25"/><polygon class="cls-1" points="144.43 130.12 140.42 127.81 142.17 126.8 146.18 129.12 144.43 130.12"/><polygon class="cls-1" points="153.83 135.55 146.25 131.17 148 130.16 155.58 134.54 153.83 135.55"/><polygon class="cls-1" points="149.14 153.13 145.13 150.82 146.88 149.81 150.89 152.12 149.14 153.13"/><polygon class="cls-1" points="158.54 158.56 150.96 154.18 152.71 153.17 160.29 157.55 158.54 158.56"/><polygon class="cls-1" points="192.75 129.62 188.74 127.31 190.49 126.3 194.5 128.62 192.75 129.62"/><polygon class="cls-1" points="186.69 126.13 182.68 123.81 184.43 122.8 188.44 125.12 186.69 126.13"/><polygon class="cls-1" points="202.15 135.05 194.57 130.67 196.31 129.66 203.9 134.04 202.15 135.05"/><polygon class="cls-1" points="156.34 122.8 152.72 120.71 154.47 119.7 158.08 121.79 156.34 122.8"/><polygon class="cls-1" points="167.06 128.99 158.27 123.91 160.02 122.91 168.81 127.98 167.06 128.99"/><polygon class="cls-1" points="177.78 135.18 168.99 130.11 170.74 129.1 179.53 134.17 177.78 135.18"/><polygon class="cls-1" points="153.39 130.56 144.6 125.49 146.35 124.48 155.14 129.55 153.39 130.56"/><polygon class="cls-1" points="158.02 133.24 155.32 131.68 157.07 130.67 159.77 132.23 158.02 133.24"/><polygon class="cls-1" points="162.67 135.92 159.97 134.36 161.72 133.35 164.42 134.91 162.67 135.92"/><polygon class="cls-1" points="171.25 140.88 164.61 137.04 166.36 136.03 173 139.87 171.25 140.88"/><polygon class="cls-1" points="173.06 141.92 166.42 138.08 168.16 137.07 174.8 140.91 173.06 141.92"/><polygon class="cls-1" points="190.99 138.07 188.29 136.51 190.03 135.5 192.73 137.06 190.99 138.07"/><polygon class="cls-1" points="127.49 145.36 118.83 140.37 120.58 139.36 129.24 144.35 127.49 145.36"/><polygon class="cls-1" points="133.29 148.71 129.28 146.4 131.03 145.39 135.04 147.7 133.29 148.71"/><polygon class="cls-1" points="139.11 152.07 135.11 149.76 136.86 148.75 140.86 151.07 139.11 152.07"/><polygon class="cls-1" points="148.52 157.5 140.93 153.13 142.68 152.12 150.27 156.5 148.52 157.5"/><polygon class="cls-1" points="135.58 159.5 131.57 157.19 133.32 156.18 137.33 158.49 135.58 159.5"/><polygon class="cls-1" points="144.98 164.93 137.4 160.55 139.15 159.54 146.73 163.92 144.98 164.93"/><polygon class="cls-1" points="114.64 147.41 110.63 145.1 112.38 144.09 116.39 146.4 114.64 147.41"/><polygon class="cls-1" points="120.47 150.78 116.46 148.46 118.21 147.45 122.22 149.77 120.47 150.78"/><polygon class="cls-1" points="129.87 156.2 122.29 151.82 124.04 150.82 131.62 155.19 129.87 156.2"/><polygon class="cls-1" points="118.35 144.82 114.73 142.73 116.48 141.72 120.1 143.81 118.35 144.82"/><polygon class="cls-1" points="129.07 151.01 120.28 145.94 122.03 144.93 130.82 150 129.07 151.01"/><polygon class="cls-1" points="139.8 157.2 131.01 152.13 132.76 151.12 141.55 156.19 139.8 157.2"/><polygon class="cls-1" points="108.31 148.49 99.53 143.41 101.27 142.41 110.06 147.48 108.31 148.49"/><polygon class="cls-1" points="112.95 151.17 110.25 149.61 112 148.6 114.7 150.16 112.95 151.17"/><polygon class="cls-1" points="117.59 153.85 114.89 152.29 116.64 151.28 119.34 152.84 117.59 153.85"/><polygon class="cls-1" points="94.1 175.39 91.4 173.84 93.15 172.83 95.85 174.38 94.1 175.39"/><polygon class="cls-1" points="126.18 158.8 119.54 154.97 121.28 153.96 127.93 157.79 126.18 158.8"/><polygon class="cls-1" points="127.98 159.84 121.34 156.01 123.09 155 129.73 158.84 127.98 159.84"/><polygon class="cls-1" points="125.75 139.63 123.05 138.07 124.8 137.06 127.5 138.62 125.75 139.63"/><polygon class="cls-1" points="134.34 144.59 127.7 140.75 129.45 139.74 136.09 143.58 134.34 144.59"/><polygon class="cls-1" points="143.11 149.65 136.47 145.81 138.22 144.81 144.86 148.64 143.11 149.65"/><polygon class="cls-1" points="132.13 127.76 129.44 126.2 131.18 125.19 133.88 126.75 132.13 127.76"/><polygon class="cls-1" points="140.72 132.71 134.08 128.88 135.83 127.87 142.47 131.71 140.72 132.71"/><polygon class="cls-1" points="149.49 137.78 142.85 133.94 144.6 132.94 151.24 136.77 149.49 137.78"/><path class="cls-1" d="M405.47,235.48a9.28,9.28,0,0,1-4.63-1.24l-54.92-31.71a2.57,2.57,0,0,1-1.31-2.27,2.64,2.64,0,0,1,1.31-2.28l81.25-46.9a9.26,9.26,0,0,1,9.25,0l54.92,31.71a2.57,2.57,0,0,1,1.31,2.27,2.64,2.64,0,0,1-1.31,2.28l-81.24,46.9A9.28,9.28,0,0,1,405.47,235.48Zm26.32-85.24a8.85,8.85,0,0,0-4.43,1.18l-81.24,46.91a2.23,2.23,0,0,0,0,3.86L401,233.9a8.87,8.87,0,0,0,8.86,0L491.1,187a2.22,2.22,0,0,0,0-3.86l-54.92-31.71a8.81,8.81,0,0,0-4.39-1.18Z" transform="translate(-262.14 -54.75)"/><path class="cls-8" d="M374.2,257l-54.92-31.71a2.43,2.43,0,0,1-.89-3.32,2.38,2.38,0,0,1,.89-.89l8.38-4.88a9.05,9.05,0,0,1,9.06,0l54.92,31.71a2.42,2.42,0,0,1,0,4.2L383.26,257A9.1,9.1,0,0,1,374.2,257Z" transform="translate(-262.14 -54.75)"/><polygon class="cls-1" points="84.56 169.82 75.78 164.75 77.52 163.74 86.31 168.81 84.56 169.82"/><polygon class="cls-1" points="109.34 184.49 106.64 182.93 108.39 181.92 111.09 183.48 109.34 184.49"/><polygon class="cls-1" points="89.66 172.84 86.96 171.28 88.71 170.27 91.4 171.83 89.66 172.84"/><path class="cls-1" d="M378.73,250.67a9.28,9.28,0,0,1-4.63-1.24l-54.92-31.7a2.64,2.64,0,0,1-1.31-2.28,2.57,2.57,0,0,1,1.31-2.27l8.38-4.89a9.28,9.28,0,0,1,9.26,0L391.74,240a2.64,2.64,0,0,1,1.31,2.28,2.57,2.57,0,0,1-1.31,2.27l-8.39,4.88A9.14,9.14,0,0,1,378.73,250.67Zm-46.54-43.22a8.83,8.83,0,0,0-4.43,1.19l-8.38,4.88a2.22,2.22,0,0,0,0,3.86l54.92,31.71a8.87,8.87,0,0,0,8.86,0l8.38-4.88a2.23,2.23,0,0,0,.83-3,2.28,2.28,0,0,0-.83-.83l-54.92-31.7A8.83,8.83,0,0,0,332.19,207.45Z" transform="translate(-262.14 -54.75)"/><path class="cls-1" d="M364,281.85a13.88,13.88,0,0,1-6.81-1.56L268.41,229a4.81,4.81,0,0,1-2.77-4.05c0-1.89,1.41-3.8,3.88-5.22l172.33-99.47c4.62-2.66,11.64-3,15.65-.64l88.78,51.21a4.8,4.8,0,0,1,2.77,4c0,1.9-1.41,3.8-3.88,5.22L372.85,279.6A18.14,18.14,0,0,1,364,281.85Zm-6.61-2c3.9,2.26,10.75,2,15.26-.64L545,179.79c2.34-1.35,3.69-3.13,3.69-4.88a4.43,4.43,0,0,0-2.58-3.7L457.3,119.94c-3.9-2.25-10.74-2-15.26.64L269.72,220c-2.34,1.36-3.68,3.13-3.68,4.88a4.42,4.42,0,0,0,2.57,3.7Z" transform="translate(-262.14 -54.75)"/><path class="cls-1" d="M273.59,231.7a.18.18,0,0,1-.17-.11.2.2,0,0,1,.08-.27c3.94-2.16,7.43-7,8.69-12l16.09-63.92c2-7.85,8.18-13.27,12.74-13.41a4.81,4.81,0,0,1,4.84,3.75l4.54,14.4a4.66,4.66,0,0,0,2.68,3.12c1.55.61,3.53.3,5.59-.86l3.24-1.84c3.68-2.07,7.06-6.62,8.41-11.31,2.15-7.49,8.05-12.47,12.27-12.79a4.68,4.68,0,0,1,4.84,2.92l5,10.91a4.39,4.39,0,0,0,2.63,2.45,6.85,6.85,0,0,0,5.34-1l3.72-2.1c3.93-2.22,7.48-7.23,8.63-12.19l16.15-69C400.71,60.7,407,55,411.56,54.76a4.72,4.72,0,0,1,4.92,3.49l24.54,69a4.62,4.62,0,0,0,2.67,2.91,6.71,6.71,0,0,0,5.51-.88l12.56-7.1a.21.21,0,0,1,.27.07.21.21,0,0,1-.08.27h0l-12.55,7.1a7.07,7.07,0,0,1-5.85.91,4.91,4.91,0,0,1-2.9-3.15l-24.55-69a4.3,4.3,0,0,0-4.52-3.22c-4.4.24-10.52,5.8-12.29,13.39l-16.12,69.06c-1.2,5.14-4.74,10.14-8.82,12.45l-3.72,2.1a7.25,7.25,0,0,1-5.66,1,4.79,4.79,0,0,1-2.87-2.67l-5-10.91a4.25,4.25,0,0,0-4.45-2.68c-4.09.31-9.81,5.18-11.92,12.5-1.38,4.78-4.83,9.42-8.59,11.55l-3.25,1.84c-2.16,1.22-4.27,1.53-5.93.87a5,5,0,0,1-2.9-3.36l-4.58-14.45c-.73-2.33-2.27-3.56-4.44-3.47-4.33.13-10.48,5.54-12.38,13.11l-16.08,63.92c-1.29,5.1-4.86,10-8.89,12.23A.21.21,0,0,1,273.59,231.7Z" transform="translate(-262.14 -54.75)"/><path class="cls-1" d="M287.11,239.63a.2.2,0,0,1-.1-.38c3.95-2.16,7.44-7,8.7-12l16.08-63.92c2-7.85,8.19-13.27,12.75-13.4,2.34-.06,4,1.26,4.84,3.74l4.54,14.4a4.67,4.67,0,0,0,2.67,3.12c1.55.61,3.54.3,5.59-.86l3.25-1.84c3.68-2.07,7.05-6.62,8.4-11.31,2.16-7.49,8.06-12.46,12.28-12.78a4.66,4.66,0,0,1,4.84,2.91l5,10.91a4.39,4.39,0,0,0,2.63,2.45,6.8,6.8,0,0,0,5.34-.94l3.72-2.11c3.92-2.22,7.47-7.23,8.63-12.19l16.12-69.06c1.81-7.76,8.12-13.44,12.65-13.7a4.71,4.71,0,0,1,5,3.51l24.55,69a4.58,4.58,0,0,0,2.66,2.91,6.73,6.73,0,0,0,5.52-.88l12.66-7.16a.2.2,0,0,1,.28,0,.21.21,0,0,1,0,.29l-.06,0-12.66,7.16a7.1,7.1,0,0,1-5.86.91,5,5,0,0,1-2.9-3.15l-24.54-69a4.32,4.32,0,0,0-4.53-3.22c-4.39.24-10.52,5.8-12.29,13.39L396.7,145.54c-1.2,5.14-4.75,10.14-8.83,12.45l-3.72,2.1a7.22,7.22,0,0,1-5.65,1,4.76,4.76,0,0,1-2.87-2.67l-5-10.9a4.26,4.26,0,0,0-4.45-2.69c-4.09.31-9.82,5.18-11.92,12.5-1.38,4.78-4.83,9.42-8.59,11.55l-3.25,1.84c-2.16,1.22-4.27,1.53-5.93.88a5.06,5.06,0,0,1-2.91-3.37L329,153.85c-.74-2.33-2.27-3.55-4.45-3.47-4.32.13-10.47,5.54-12.37,13.11l-16.09,63.92c-1.28,5.11-4.85,10-8.89,12.23A.14.14,0,0,1,287.11,239.63Z" transform="translate(-262.14 -54.75)"/><path class="cls-1" d="M427.75,63.7h-.1L414,55.7a.21.21,0,0,1-.07-.27.19.19,0,0,1,.26-.08h0l13.63,8a.22.22,0,0,1,.07.28A.18.18,0,0,1,427.75,63.7Z" transform="translate(-262.14 -54.75)"/><path class="cls-1" d="M369.22,145.63h-.1l-13.79-8.11a.22.22,0,0,1-.07-.28.21.21,0,0,1,.27-.07l13.79,8.12a.19.19,0,0,1,.08.26h0A.22.22,0,0,1,369.22,145.63Z" transform="translate(-262.14 -54.75)"/><path class="cls-1" d="M327.39,151.19h-.1l-14.37-8.42a.19.19,0,0,1-.08-.26h0a.19.19,0,0,1,.26-.08h0l14.37,8.42a.21.21,0,0,1,.06.28.19.19,0,0,1-.16.09Z" transform="translate(-262.14 -54.75)"/><path class="cls-1" d="M273.59,231.7a.18.18,0,0,1-.17-.11.2.2,0,0,1,.08-.27c3.94-2.16,7.43-7,8.69-12l16.09-63.92c2-7.85,8.18-13.27,12.74-13.41a4.81,4.81,0,0,1,4.84,3.75l4.54,14.4a4.66,4.66,0,0,0,2.68,3.12c1.55.61,3.53.3,5.59-.86l3.24-1.84c3.68-2.07,7.06-6.62,8.41-11.31,2.15-7.49,8.05-12.47,12.27-12.79a4.68,4.68,0,0,1,4.84,2.92l5,10.91a4.39,4.39,0,0,0,2.63,2.45,6.85,6.85,0,0,0,5.34-1l3.72-2.1c3.93-2.22,7.48-7.23,8.63-12.19l16.15-69C400.71,60.7,407,55,411.56,54.76a4.72,4.72,0,0,1,4.92,3.49l24.54,69a4.62,4.62,0,0,0,2.67,2.91,6.71,6.71,0,0,0,5.51-.88l12.56-7.1a.21.21,0,0,1,.27.07.21.21,0,0,1-.08.27h0l-12.55,7.1a7.07,7.07,0,0,1-5.85.91,4.91,4.91,0,0,1-2.9-3.15l-24.55-69a4.3,4.3,0,0,0-4.52-3.22c-4.4.24-10.52,5.8-12.29,13.39l-16.12,69.06c-1.2,5.14-4.74,10.14-8.82,12.45l-3.72,2.1a7.25,7.25,0,0,1-5.66,1,4.79,4.79,0,0,1-2.87-2.67l-5-10.91a4.25,4.25,0,0,0-4.45-2.68c-4.09.31-9.81,5.18-11.92,12.5-1.38,4.78-4.83,9.42-8.59,11.55l-3.25,1.84c-2.16,1.22-4.27,1.53-5.93.87a5,5,0,0,1-2.9-3.36l-4.58-14.45c-.73-2.33-2.27-3.56-4.44-3.47-4.33.13-10.48,5.54-12.38,13.11l-16.08,63.92c-1.29,5.1-4.86,10-8.89,12.23A.21.21,0,0,1,273.59,231.7Z" transform="translate(-262.14 -54.75)"/><path class="cls-1" d="M287.11,239.63a.2.2,0,0,1-.1-.38c3.95-2.16,7.44-7,8.7-12l16.08-63.92c2-7.85,8.19-13.27,12.75-13.4,2.34-.06,4,1.26,4.84,3.74l4.54,14.4a4.67,4.67,0,0,0,2.67,3.12c1.55.61,3.54.3,5.59-.86l3.25-1.84c3.68-2.07,7.05-6.62,8.4-11.31,2.16-7.49,8.06-12.46,12.28-12.78a4.66,4.66,0,0,1,4.84,2.91l5,10.91a4.39,4.39,0,0,0,2.63,2.45,6.8,6.8,0,0,0,5.34-.94l3.72-2.11c3.92-2.22,7.47-7.23,8.63-12.19l16.12-69.06c1.81-7.76,8.12-13.44,12.65-13.7a4.71,4.71,0,0,1,5,3.51l24.55,69a4.58,4.58,0,0,0,2.66,2.91,6.73,6.73,0,0,0,5.52-.88l12.66-7.16a.2.2,0,0,1,.28,0,.21.21,0,0,1,0,.29l-.06,0-12.66,7.16a7.1,7.1,0,0,1-5.86.91,5,5,0,0,1-2.9-3.15l-24.54-69a4.32,4.32,0,0,0-4.53-3.22c-4.39.24-10.52,5.8-12.29,13.39L396.7,145.54c-1.2,5.14-4.75,10.14-8.83,12.45l-3.72,2.1a7.22,7.22,0,0,1-5.65,1,4.76,4.76,0,0,1-2.87-2.67l-5-10.9a4.26,4.26,0,0,0-4.45-2.69c-4.09.31-9.82,5.18-11.92,12.5-1.38,4.78-4.83,9.42-8.59,11.55l-3.25,1.84c-2.16,1.22-4.27,1.53-5.93.88a5.06,5.06,0,0,1-2.91-3.37L329,153.85c-.74-2.33-2.27-3.55-4.45-3.47-4.32.13-10.47,5.54-12.37,13.11l-16.09,63.92c-1.28,5.11-4.85,10-8.89,12.23A.14.14,0,0,1,287.11,239.63Z" transform="translate(-262.14 -54.75)"/><path class="cls-10" d="M461.86,122.34l-12.56,7.1c-3.84,2.17-7.24,1.31-8.47-2.14l-24.54-69c-2.8-7.88-14.61-.89-17.2,10.18L383,137.56c-1.18,5-4.73,10.06-8.73,12.32L370.55,152c-3.61,2-6.86,1.41-8.25-1.6l-5-10.91c-3.11-6.76-13.76-.5-16.74,9.84h0c-1.38,4.77-4.76,9.32-8.5,11.44l-3.25,1.83c-3.94,2.23-7.4,1.27-8.55-2.37l-4.59-14.37c-2.56-8.13-14.4-1.49-17.2,9.65l-16.08,63.92c-1.27,5-4.83,9.93-8.8,12.11Z" transform="translate(-262.14 -54.75)"/><path class="cls-11" d="M475.61,129.94l-12.79,7.23c-3.84,2.17-7.24,1.32-8.47-2.13L429.81,66c-2.81-7.88-14.62-.89-17.2,10.18L396.5,145.3c-1.18,5-4.73,10.06-8.73,12.32l-3.72,2.1c-3.62,2-6.86,1.42-8.25-1.6l-5-10.9c-3.12-6.77-13.76-.51-16.74,9.83h0c-1.38,4.78-4.76,9.32-8.5,11.44l-3.25,1.84c-3.94,2.23-7.4,1.26-8.55-2.38l-4.54-14.4c-2.56-8.13-14.4-1.48-17.2,9.65L295.9,227.12c-1.26,5-4.83,9.94-8.79,12.11Z" transform="translate(-262.14 -54.75)"/><path class="cls-12" d="M328.33,135.52A3.6,3.6,0,1,0,332,132a3.6,3.6,0,0,0-3.67,3.57Z" transform="translate(-262.14 -54.75)"/><path class="cls-1" d="M330.37,135.53a1.56,1.56,0,1,0,1.57-1.55,1.56,1.56,0,0,0-1.57,1.55Z" transform="translate(-262.14 -54.75)"/><path class="cls-12" d="M383.53,73.08a3.6,3.6,0,1,0,3.64-3.56h0A3.62,3.62,0,0,0,383.53,73.08Z" transform="translate(-262.14 -54.75)"/><path class="cls-1" d="M385.57,73.1a1.56,1.56,0,1,0,1.57-1.55,1.56,1.56,0,0,0-1.57,1.55Z" transform="translate(-262.14 -54.75)"/><path class="cls-12" d="M280.55,147.68a3.61,3.61,0,1,0,3.65-3.57h0a3.6,3.6,0,0,0-3.64,3.56Z" transform="translate(-262.14 -54.75)"/><path class="cls-1" d="M282.59,147.69a1.57,1.57,0,1,0,1.6-1.54h0a1.56,1.56,0,0,0-1.58,1.54Z" transform="translate(-262.14 -54.75)"/><polygon class="cls-13" points="229.21 262.24 145.5 213.9 245.01 156.45 328.72 204.79 229.21 262.24"/><rect class="cls-1" x="399.94" y="239.76" width="114.9" height="0.4" transform="translate(-320.86 205.74) rotate(-29.96)"/><path class="cls-1" d="M490,296.4a6.59,6.59,0,0,1-3.33-.89L447.4,272.85a1.93,1.93,0,0,1,0-3.35L505.46,236a6.68,6.68,0,0,1,6.67,0l39.25,22.66a1.93,1.93,0,0,1,0,3.35l-58.06,33.52A6.66,6.66,0,0,1,490,296.4Zm-3.13-1.23a6.27,6.27,0,0,0,6.27,0l58.06-33.52a1.54,1.54,0,0,0,.57-2.1,1.56,1.56,0,0,0-.57-.57L512,236.32a6.32,6.32,0,0,0-6.27,0l-58.09,33.53a1.49,1.49,0,0,0-.76,1.33,1.53,1.53,0,0,0,.76,1.33Z" transform="translate(-262.14 -54.75)"/><polygon class="cls-1" points="237.26 203.56 231.1 200 232.63 199.12 238.79 202.68 237.26 203.56"/><polygon class="cls-14" points="242.52 206.6 239.44 204.82 240.97 203.93 244.05 205.71 242.52 206.6"/><polygon class="cls-14" points="233.67 205.63 227.51 202.08 229.05 201.19 235.2 204.75 233.67 205.63"/><polygon class="cls-14" points="238.93 208.67 235.85 206.89 237.38 206.01 240.46 207.78 238.93 208.67"/><polygon class="cls-1" points="230.08 207.7 223.92 204.15 225.46 203.26 231.61 206.82 230.08 207.7"/><polygon class="cls-1" points="235.34 210.74 232.26 208.96 233.79 208.08 236.87 209.86 235.34 210.74"/><polygon class="cls-1" points="226.5 209.78 220.34 206.22 221.87 205.34 228.03 208.89 226.5 209.78"/><polygon class="cls-1" points="231.75 212.81 228.67 211.03 230.2 210.15 233.28 211.93 231.75 212.81"/><polygon class="cls-1" points="222.91 211.85 216.75 208.29 218.28 207.41 224.44 210.96 222.91 211.85"/><polygon class="cls-1" points="228.16 214.88 225.08 213.11 226.61 212.22 229.69 214 228.16 214.88"/><polygon class="cls-1" points="219.32 213.92 213.16 210.36 214.69 209.48 220.85 213.04 219.32 213.92"/><polygon class="cls-1" points="224.57 216.95 221.49 215.18 223.03 214.29 226.11 216.07 224.57 216.95"/><polygon class="cls-1" points="215.73 215.99 209.57 212.44 211.1 211.55 217.26 215.11 215.73 215.99"/><polygon class="cls-14" points="220.99 219.03 217.91 217.25 219.44 216.37 222.52 218.14 220.99 219.03"/><polygon class="cls-1" points="212.14 218.06 205.98 214.51 207.51 213.63 213.67 217.18 212.14 218.06"/><polygon class="cls-14" points="217.4 221.1 214.32 219.32 215.85 218.44 218.93 220.21 217.4 221.1"/><polygon class="cls-1" points="250.94 211.54 244.78 207.98 246.31 207.1 252.47 210.65 250.94 211.54"/><polygon class="cls-1" points="256.2 214.57 253.12 212.79 254.65 211.91 257.73 213.69 256.2 214.57"/><polygon class="cls-1" points="247.35 213.61 241.19 210.05 242.72 209.17 248.88 212.73 247.35 213.61"/><polygon class="cls-1" points="252.61 216.64 249.53 214.87 251.06 213.98 254.14 215.76 252.61 216.64"/><polygon class="cls-1" points="243.76 215.68 237.61 212.12 239.14 211.24 245.3 214.8 243.76 215.68"/><polygon class="cls-1" points="249.02 218.71 245.94 216.94 247.47 216.05 250.55 217.83 249.02 218.71"/><polygon class="cls-1" points="247.97 197.38 241.81 193.82 243.34 192.94 249.5 196.5 247.97 197.38"/><polygon class="cls-1" points="253.22 200.41 250.14 198.64 251.68 197.75 254.75 199.53 253.22 200.41"/><polygon class="cls-1" points="244.38 199.45 238.22 195.9 239.75 195.01 245.91 198.57 244.38 199.45"/><polygon class="cls-1" points="249.63 202.49 246.56 200.71 248.09 199.82 251.17 201.6 249.63 202.49"/><polygon class="cls-1" points="240.79 201.52 234.63 197.97 236.16 197.08 242.32 200.64 240.79 201.52"/><polygon class="cls-1" points="246.05 204.56 242.97 202.78 244.5 201.9 247.58 203.68 246.05 204.56"/><polygon class="cls-1" points="261.65 205.36 255.49 201.8 257.02 200.92 263.18 204.47 261.65 205.36"/><polygon class="cls-1" points="266.9 208.39 263.82 206.61 265.36 205.73 268.43 207.51 266.9 208.39"/><polygon class="cls-14" points="258.06 207.43 251.9 203.87 253.43 202.99 259.59 206.54 258.06 207.43"/><polygon class="cls-1" points="263.32 210.46 260.24 208.68 261.77 207.8 264.85 209.58 263.32 210.46"/><polygon class="cls-1" points="254.47 209.5 248.31 205.94 249.84 205.06 256 208.62 254.47 209.5"/><polygon class="cls-1" points="259.73 212.53 256.65 210.75 258.18 209.87 261.26 211.65 259.73 212.53"/><polygon class="cls-1" points="240.18 217.75 234.02 214.2 235.55 213.31 241.71 216.87 240.18 217.75"/><polygon class="cls-1" points="245.43 220.79 242.35 219.01 243.88 218.13 246.96 219.9 245.43 220.79"/><polygon class="cls-14" points="236.59 219.82 230.43 216.27 231.96 215.38 238.12 218.94 236.59 219.82"/><polygon class="cls-1" points="241.84 222.86 238.76 221.08 240.29 220.2 243.37 221.98 241.84 222.86"/><polygon class="cls-1" points="233 221.9 226.84 218.34 228.37 217.46 234.53 221.01 233 221.9"/><polygon class="cls-1" points="238.25 224.93 235.17 223.15 236.71 222.27 239.79 224.05 238.25 224.93"/><polygon class="cls-1" points="229.41 223.97 223.25 220.41 224.78 219.53 230.94 223.08 229.41 223.97"/><polygon class="cls-1" points="234.67 227 231.59 225.22 233.12 224.34 236.2 226.12 234.67 227"/><polygon class="cls-1" points="225.89 226 219.73 222.44 221.26 221.56 227.42 225.12 225.89 226"/><polygon class="cls-1" points="231.14 229.04 228.06 227.26 229.6 226.37 232.67 228.15 231.14 229.04"/></g></svg>